<?xml version="1.0" encoding="UTF-8" standalone="no"?>
<!-- Created with Inkscape (http://www.inkscape.org/) -->

<svg
   width="48"
   height="56"
   viewBox="0 0 12.7 14.816665"
   version="1.1"
   id="svg1"
   xml:space="preserve"
   inkscape:version="1.3.2 (1:1.3.2+202311252150+091e20ef0f)"
   sodipodi:docname="geniml_logo3.svg"
   xmlns:inkscape="http://www.inkscape.org/namespaces/inkscape"
   xmlns:sodipodi="http://sodipodi.sourceforge.net/DTD/sodipodi-0.dtd"
   xmlns="http://www.w3.org/2000/svg"
   xmlns:svg="http://www.w3.org/2000/svg"><sodipodi:namedview
     id="namedview1"
     pagecolor="#ffffff"
     bordercolor="#000000"
     borderopacity="0.25"
     inkscape:showpageshadow="2"
     inkscape:pageopacity="0.0"
     inkscape:pagecheckerboard="0"
     inkscape:deskcolor="#d1d1d1"
     inkscape:document-units="mm"
     inkscape:zoom="2.9112848"
     inkscape:cx="113.86725"
     inkscape:cy="-76.426738"
     inkscape:window-width="2488"
     inkscape:window-height="1343"
     inkscape:window-x="1272"
     inkscape:window-y="27"
     inkscape:window-maximized="1"
     inkscape:current-layer="layer1" /><defs
     id="defs1" /><g
     inkscape:label="Layer 1"
     inkscape:groupmode="layer"
     id="layer1"><path
       style="-inkscape-font-specification:cream;stroke-width:0.632509"
       d="m 31.084418,9.0693971 c 0.330591,-0.303605 0.546488,-0.742145 0.546488,-1.234659 -0.0067,-0.87708 -0.701664,-1.612478 -1.578744,-1.659705 -0.958042,-0.05397 -1.75416,0.715157 -1.75416,1.659705 0,0.917561 0.742144,1.659706 1.652958,1.666452 0.303605,0 1.005269,0.05397 1.005269,0.6004629 0,0.600462 -1.187432,0.782625 -1.875602,0.465527 -0.04723,-0.02699 -0.107948,-0.0067 -0.141682,0.03373 l -0.195657,0.276617 c -0.04048,0.05397 -0.02699,0.128189 0.02699,0.16867 1.025509,0.613956 2.806657,0.24963 2.806657,-0.944548 0,-0.4048059 -0.175416,-0.7219049 -0.485768,-0.9310539 -0.03373,-0.02699 -0.04048,-0.07421 -0.0067,-0.101202 z m -2.111739,-1.099723 c -0.08771,-0.654437 0.465527,-1.207672 1.119963,-1.126711 0.445287,0.06072 0.809613,0.4183 0.863587,0.863587 0.08096,0.654436 -0.472274,1.207671 -1.119964,1.12671 -0.452033,-0.06072 -0.809612,-0.4183 -0.863586,-0.863586 z m 6.22811,-0.39806 c 0,-0.580222 -0.566728,-1.308873 -1.322367,-1.389834 -0.931054,-0.09445 -1.75416,0.45878 -1.875602,1.389834 -0.141682,1.06599 0.634197,1.929576 1.679946,1.929576 0.425047,0 0.85684,-0.134935 1.254899,-0.526248 0.05397,-0.04723 0.05397,-0.134935 0,-0.182163 l -0.269871,-0.263124 c -0.04723,-0.04723 -0.128188,-0.04723 -0.175416,0 -0.215896,0.195657 -0.532994,0.323845 -0.796118,0.323845 -0.465528,0 -0.897321,-0.195656 -1.025509,-0.715157 -0.0067,-0.04048 0.02024,-0.07421 0.06072,-0.07421 h 2.064512 c 0.18891,0 0.391313,-0.148429 0.398059,-0.337338 0.0067,-0.08771 0.0067,-0.155176 0.0067,-0.155176 z M 33.69626,6.7485081 c 0.539741,0 0.782625,0.391313 0.883826,0.735398 0.01349,0.04048 -0.01349,0.08771 -0.06072,0.08771 h -1.733919 c -0.04723,0 -0.07422,-0.04723 -0.06072,-0.08771 0.09445,-0.377819 0.465527,-0.735398 0.971535,-0.735398 z m 4.696583,0.8366 c 0,-0.715158 -0.452034,-1.416822 -1.416822,-1.416822 -0.350832,0 -0.600462,0.128189 -0.762385,0.350832 v -0.175416 c -0.0067,-0.06072 -0.05397,-0.114695 -0.121442,-0.114695 h -0.404806 c -0.06747,0 -0.121442,0.05397 -0.121442,0.121442 l -0.0067,1.160444 0.02024,1.868855 c 0,0.06747 0.05397,0.121442 0.121442,0.121442 h 0.377819 c 0.06747,0 0.121442,-0.05397 0.121442,-0.121442 l 0.02024,-1.79464 c 0,-1.052496 1.50453,-1.052496 1.50453,0 l 0.02699,1.79464 c 0,0.06747 0.05397,0.121442 0.121442,0.121442 h 0.377819 c 0.06072,0 0.114695,-0.05397 0.114695,-0.121442 z m 1.275973,-2.13198 c 0,0.229391 -0.195656,0.4183 -0.425046,0.4183 -0.236137,0 -0.425047,-0.188909 -0.425047,-0.4183 0,-0.236137 0.18891,-0.425046 0.425047,-0.425046 0.22939,0 0.425046,0.188909 0.425046,0.425046 z m -0.22939,0.715158 h -0.391313 c -0.06747,0 -0.121442,0.05397 -0.121442,0.121442 l -0.02024,1.079483 v 0.931054 l 0.02024,1.08623 c 0,0.06072 0.05397,0.114695 0.121442,0.114695 h 0.391313 c 0.06747,0 0.114695,-0.05397 0.114695,-0.114695 l 0.02699,-1.08623 v -0.931054 l -0.02699,-1.079483 c 0,-0.06747 -0.04723,-0.121442 -0.114695,-0.121442 z m 5.654625,1.416822 c 0,-0.715158 -0.445287,-1.416822 -1.416822,-1.416822 -0.404806,0 -0.775878,0.148429 -1.045749,0.506008 -0.445287,-0.580222 -1.477543,-0.708411 -1.882349,-0.155176 v -0.175416 c -0.0067,-0.06072 -0.05397,-0.114695 -0.121442,-0.114695 h -0.404806 c -0.06747,0 -0.121442,0.05397 -0.121442,0.121442 l -0.0067,1.160444 0.02024,1.868855 c 0,0.06747 0.05397,0.121442 0.121442,0.121442 h 0.377819 c 0.06747,0 0.121442,-0.05397 0.121442,-0.121442 l 0.02024,-1.79464 c 0,-1.052496 1.50453,-1.052496 1.50453,0 l 0.02699,1.79464 c 0,0.06747 0.05397,0.121442 0.121441,0.121442 h 0.37782 c 0.06747,0 0.121441,-0.05397 0.121441,-0.121442 l 0.02024,-1.79464 c 0,-1.059243 1.504529,-1.04575 1.504529,0 l 0.02024,1.79464 c 0,0.06747 0.05397,0.121442 0.121442,0.121442 h 0.377819 c 0.06747,0 0.121442,-0.05397 0.121442,-0.121442 z M 46.1204,4.4343661 h -0.398059 c -0.06072,0 -0.114695,0.04723 -0.114695,0.114695 l -0.02024,1.079483 v 2.671721 l 0.02024,1.08623 c 0,0.06072 0.05397,0.114695 0.114695,0.114695 H 46.1204 c 0.06072,0 0.114695,-0.05397 0.114695,-0.114695 l 0.02024,-1.08623 v -2.671721 l -0.02024,-1.079483 c 0,-0.06747 -0.05397,-0.114695 -0.114695,-0.114695 z"
       id="text54"
       aria-label="geniml" /><g
       id="g146"
       transform="matrix(0.73388297,0,0,0.73388297,8.9871672,26.099255)"><path
         style="font-variation-settings:normal;opacity:1;vector-effect:none;fill:none;fill-opacity:1;stroke:#18181b;stroke-width:0.178901;stroke-linecap:butt;stroke-linejoin:miter;stroke-miterlimit:4;stroke-dasharray:none;stroke-dashoffset:0;stroke-opacity:1;-inkscape-stroke:none;paint-order:fill markers stroke;stop-color:#000000;stop-opacity:1"
         d="m 21.987507,-20.761573 -3.625616,-0.97148"
         id="path57" /><path
         style="font-variation-settings:normal;opacity:1;vector-effect:none;fill:none;fill-opacity:1;stroke:#18181b;stroke-width:0.178901;stroke-linecap:butt;stroke-linejoin:miter;stroke-miterlimit:4;stroke-dasharray:none;stroke-dashoffset:0;stroke-opacity:1;-inkscape-stroke:none;paint-order:fill markers stroke;stop-color:#000000;stop-opacity:1"
         d="M 23.779387,-23.028272 22.229763,-25.7123"
         id="path58" /><path
         style="font-variation-settings:normal;opacity:1;vector-effect:none;fill:none;fill-opacity:1;stroke:#18181b;stroke-width:0.178901;stroke-linecap:butt;stroke-linejoin:miter;stroke-miterlimit:4;stroke-dasharray:none;stroke-dashoffset:0;stroke-opacity:1;-inkscape-stroke:none;paint-order:fill markers stroke;stop-color:#000000;stop-opacity:1"
         d="m 16.567628,-30.050875 3.625616,0.97148"
         id="path56" /><path
         style="font-variation-settings:normal;opacity:1;vector-effect:none;fill:none;fill-opacity:1;stroke:#18181b;stroke-width:0.178901;stroke-linecap:butt;stroke-linejoin:miter;stroke-miterlimit:4;stroke-dasharray:none;stroke-dashoffset:0;stroke-opacity:1;-inkscape-stroke:none;paint-order:fill markers stroke;stop-color:#000000;stop-opacity:1"
         d="m 14.775748,-27.784176 1.549624,2.684028"
         id="path55" /><path
         style="fill:none;stroke:#18181b;stroke-width:0.178901;stroke-dasharray:none;paint-order:fill markers stroke"
         d="m 17.321096,-27.625986 4.139319,4.290724"
         id="path1" /><path
         fill="#00998e"
         d="m 23.781981,-29.856273 -1.500857,-0.382685 a 0.02843576,0.02764455 87.312192 0 1 -0.01762,-0.01422 l -0.0039,-0.0083 -0.05042,-0.291496 a 0.02246883,0.02257455 14.780021 0 1 0.02217,-0.02658 H 23.6019 q 0.01853,0 0.02248,0.01855 z"
         id="path2"
         style="stroke-width:0.0306422" /><path
         fill="#f3a4ff"
         d="m 22.259557,-30.261524 0.0039,0.0083 a 0.02843576,0.02764455 87.312192 0 0 0.01762,0.01422 l 1.500857,0.382684 c 0.137905,0.02442 0.26366,0.07326 0.399743,0.09521 q 0.181342,0.02937 0.348408,0.0915 a 0.0501197,0.05100403 0 0 1 0.03281,0.04791 l -0.0043,1.361344 q -3.03e-4,0.05193 -0.05103,0.05657 -0.139424,0.01206 -0.27095,-0.0476 -0.01823,-0.0084 -0.05316,0.01236 -0.0046,-0.02133 -0.0164,-0.02442 -0.734745,-0.178669 -1.46224,-0.387322 -0.0565,-0.01638 -0.03918,0.02504 c -0.04496,-0.04977 -0.218705,-0.08779 -0.292517,-0.109117 q -0.110871,-0.04791 -0.160991,-0.05966 -0.415538,-0.09985 -0.82257,-0.168777 -0.110568,9.27e-4 -0.362077,-0.04297 -0.118161,-0.0204 -0.593235,-0.04266 -0.393668,-0.07017 -0.841708,0.02813 -0.519118,0.08686 -0.975359,0.409887 -0.100543,0.07141 -0.183773,0.0915 0.01063,-0.105099 0.06227,-0.214835 c 0.156131,-0.331371 0.344763,-0.593192 0.623915,-0.860886 0.337776,-0.323953 0.723242,-0.568772 1.179787,-0.68469 q 0.713219,-0.181142 1.434335,-0.06121 c 0.121806,0.0204 0.325626,0.02906 0.485705,0.09397 q 0.02035,0.0083 0.0401,-0.01453 z"
         id="path11"
         style="fill:#00aad4;stroke-width:0.0306422" /><path
         fill="#3b78eb"
         d="m 20.434289,-29.048864 0.134867,0.157958 1.13544,1.184839 -0.403388,0.40525 -1.24145,-1.241407 -0.467177,-0.478511 q 0.44804,-0.0983 0.841708,-0.02813 z"
         id="path12"
         style="stroke-width:0.0306422" /><path
         fill="#bb62c8"
         d="m 20.434289,-29.048864 q 0.475074,0.02226 0.593235,0.04266 0.251509,0.04389 0.362077,0.04297 -0.02339,0.01978 -0.0243,0.02349 -0.0027,0.01267 0.0079,0.01917 -0.397616,-0.05162 -0.804042,0.02967 z"
         id="path13"
         style="fill:#004455;fill-opacity:1;stroke-width:0.0306422" /><path
         fill="#bb62c8"
         d="m 19.592581,-29.020735 0.467177,0.478511 q -0.207162,0.209889 -0.330486,0.505712 -0.174356,-0.176195 -0.327449,-0.332298 c -0.105707,-0.107882 -0.260319,-0.207417 -0.383644,-0.0949 -0.174052,0.158267 -0.0027,0.361665 0.106618,0.477583 q 0.256978,0.272022 0.508488,0.539097 c 0.0046,0.391958 0.0729,0.740332 0.144588,1.118689 q -0.0076,0.01329 -0.01944,0.0019 -0.182861,-0.178983 -0.617232,-0.625346 c -0.07533,-0.07759 -0.211414,-0.187942 -0.315298,-0.100153 -0.120287,0.101699 -0.01853,0.305406 0.0568,0.402468 q 0.238145,0.308497 0.506057,0.619158 l -1.029124,-0.346827 q -0.0565,-0.251002 -0.08991,-0.577737 c -0.05407,-0.527041 -0.02521,-1.073866 0.163724,-1.564432 q 0.08323,-0.02009 0.183773,-0.0915 0.456241,-0.323026 0.975359,-0.409887 z"
         id="path14"
         style="fill:#004455;stroke-width:0.0306422" /><path
         fill="#acdc48"
         d="m 21.389601,-28.963239 q 0.407032,0.06893 0.82257,0.168777 0.05012,0.01175 0.160991,0.05966 l 0.158864,0.190415 -0.333828,0.354555 q -0.364202,-0.325498 -0.72871,-0.67418 c -0.02795,-0.02689 -0.06227,-0.03895 -0.09629,-0.05657 q -0.01063,-0.0065 -0.0079,-0.01917 9.13e-4,-0.0037 0.0243,-0.02349 z"
         id="path15"
         style="stroke-width:0.0306422" /><path
         fill="#ffffff"
         d="m 21.373198,-28.920581 c 0.03402,0.01762 0.06835,0.02967 0.09629,0.05657 q 0.364507,0.348682 0.72871,0.67418 0.04405,0.03678 0.0811,0.07573 c 0.165243,0.174032 0.355698,0.331681 0.52975,0.497676 q 0.05832,0.05564 0.07837,0.09861 c 0.05711,0.37712 0.0647,0.751768 0.08657,1.055628 q -0.03493,-6.16e-4 -0.06652,-0.03308 -0.578655,-0.59381 -1.162777,-1.181748 -0.01701,-0.01731 -0.0401,-0.02906 l -1.13544,-1.184839 q 0.406426,-0.0813 0.804042,-0.02967 z"
         id="path16"
         style="stroke-width:0.0306422" /><path
         fill="#ffffff"
         d="m 22.373162,-28.734803 c 0.07381,0.02133 0.247561,0.05935 0.292517,0.109118 l 0.0565,0.19567 q -0.03281,0.01917 -0.06075,-0.01113 -0.05954,-0.06522 -0.1294,-0.103244 z"
         id="path17"
         style="stroke-width:0.0306422" /><path
         fill="#00998e"
         d="m 24.183547,-28.238982 q 0.07989,0.390103 0.101758,0.706019 -0.191062,0.424107 -0.376961,0.666144 -0.238448,0.310042 -0.611764,0.605247 -0.04556,0.03617 -0.102366,0.03895 l -0.220223,-0.239564 c -0.02187,-0.303861 -0.02946,-0.678508 -0.08657,-1.055629 q 0.05133,0.04019 0.09811,0.07017 c 0.145499,0.09335 0.366633,0.379593 0.554658,0.37032 0.176178,-0.0087 0.224475,-0.161358 0.141854,-0.300151 q -0.05376,-0.08964 -0.126059,-0.164449 -0.388504,-0.400923 -0.780349,-0.799063 c -0.02582,-0.02597 -0.03888,-0.05719 -0.05346,-0.08902 l -0.0565,-0.19567 q -0.01731,-0.04142 0.03918,-0.02504 0.727495,0.208652 1.462281,0.387321 0.01185,0.0031 0.0164,0.02442 z"
         id="path18"
         style="stroke-width:0.0306422" /><path
         fill="#4bcfff"
         d="m 22.532026,-28.544388 q 0.06986,0.03802 0.1294,0.103244 0.02795,0.03029 0.06075,0.01113 c 0.01458,0.03184 0.02764,0.06306 0.05346,0.08903 q 0.391845,0.398141 0.780349,0.799063 0.07229,0.07481 0.126059,0.16445 c 0.08262,0.138793 0.03432,0.291496 -0.141854,0.300151 -0.188025,0.0093 -0.409159,-0.276967 -0.554658,-0.37032 q -0.04678,-0.02998 -0.09811,-0.07017 -0.02005,-0.04297 -0.07837,-0.09861 c -0.174052,-0.165995 -0.364507,-0.323644 -0.52975,-0.497676 q -0.03706,-0.03895 -0.0811,-0.07573 z"
         id="path19"
         style="stroke-width:0.0306422" /><path
         fill="#ffffff"
         d="m 20.059758,-28.542224 1.24145,1.241407 q 0.0322,0.051 0.04313,0.06213 0.636672,0.643269 1.270306,1.289011 0.0164,0.017 0.01063,0.0544 -0.316209,0.136629 -0.622395,0.173723 l -1.110834,-1.127962 a 0.01069979,0.01105708 29.512881 0 0 -0.01549,0 l -0.308616,0.310661 q -0.0094,0.0099 -0.02308,0.01267 l -0.01063,0.0022 q -0.0061,-0.01638 0.0082,-0.02998 0.147625,-0.141884 0.286745,-0.292114 c 0.007,-0.0074 0.01428,-0.0087 0.02096,-0.01329 a 0.02001943,0.01951132 71.942248 0 0 0.003,-0.03091 l -1.123898,-1.146198 q 0.123324,-0.295823 0.330486,-0.505712 z"
         id="path20"
         style="stroke-width:0.0306422" /><path
         fill="#acdc48"
         d="m 19.729272,-28.036512 1.123896,1.1462 a 0.02001943,0.01951132 71.942248 0 1 -0.003,0.03091 c -0.0067,0.0046 -0.01397,0.0059 -0.02096,0.01329 q -0.13912,0.150229 -0.286746,0.292114 -0.01428,0.0136 -0.0082,0.02998 l -0.01367,0.0037 c -0.153092,-0.07419 -0.294946,-0.287786 -0.417056,-0.411433 -0.0893,-0.09057 -0.17557,-0.199688 -0.253028,-0.282222 q -0.107529,-0.114372 -0.217185,-0.233073 -0.25151,-0.267075 -0.508488,-0.539097 c -0.109352,-0.115918 -0.28067,-0.319316 -0.106618,-0.477583 0.123325,-0.112518 0.277937,-0.01298 0.383644,0.0949 q 0.153093,0.156103 0.327449,0.332298 z"
         id="path21"
         style="stroke-width:0.0306422" /><path
         fill="#f3a4ff"
         d="m 21.704596,-27.706067 q 0.02309,0.01175 0.0401,0.02906 0.584122,0.587937 1.162776,1.181748 0.03159,0.03246 0.06652,0.03308 l 0.220223,0.239564 q -0.007,0.03586 -0.03584,0.05379 -0.257889,0.159195 -0.533092,0.273567 0.0058,-0.0374 -0.01063,-0.0544 -0.633635,-0.645742 -1.270307,-1.289011 -0.01093,-0.01113 -0.04313,-0.06213 z"
         id="path22"
         style="stroke-width:0.0306422" /><path
         fill="#00c8b4"
         d="m 24.285305,-27.532963 q 0.02977,0.08006 0.03463,0.145903 0.09872,1.326105 -0.781564,2.284052 -0.469302,0.510659 -1.025176,0.719003 -0.09416,0.03524 -0.356305,0.09366 c -0.48267,0.107572 -1.046745,0.111281 -1.533058,0.02627 q -0.16099,-0.02844 -0.320766,-0.05348 l -0.647607,-0.151158 -0.81923,-0.227509 q -0.02005,-0.02318 -0.04981,-0.03277 -0.506058,-0.202161 -1.044616,-0.297987 c -0.305579,-0.06522 -0.63728,-0.140029 -0.94863,-0.1187 q -0.09143,-0.02133 -0.295251,-0.01175 -0.317121,0.01546 -0.511221,0.04853 -0.05802,0.02751 -0.222045,0.0507 -0.189847,0.02658 -0.402477,0.174341 -0.0064,-0.0062 -0.03918,-0.0071 -0.01914,-3.09e-4 -0.03767,0.0087 -0.480541,0.234618 -0.771236,0.634304 -0.0565,0.07728 -0.113908,0.06151 3.04e-4,-0.09984 0.02703,-0.195051 c 0.174053,-0.612053 0.519424,-1.251612 1.011508,-1.655317 0.257281,-0.211125 0.558303,-0.403395 0.888486,-0.467382 0.184683,-0.03586 0.370885,-0.07759 0.554658,-0.0847 q 0.313172,-0.01206 0.546153,0.02071 0.366329,0.05131 0.931619,0.191034 l 1.029124,0.346827 0.565594,0.146211 q 0.121502,0.04575 0.253332,0.04513 0.07685,0.04668 0.174052,0.06831 0.416449,0.09243 0.871171,0.08253 0.354787,0.02844 0.749973,-0.03338 0.306186,-0.03709 0.622396,-0.173722 0.275203,-0.114373 0.533092,-0.273568 0.02886,-0.01793 0.03584,-0.05379 0.0568,-0.0028 0.102366,-0.03895 0.373316,-0.295204 0.611764,-0.605247 0.185899,-0.242037 0.376961,-0.666144 z"
         id="path23"
         style="stroke-width:0.0306422" /><path
         fill="#ffffff"
         d="m 19.633285,-27.447029 q 0.109656,0.118701 0.217185,0.233073 c 0.07746,0.08253 0.163725,0.191652 0.253028,0.282222 0.12211,0.123647 0.263964,0.337245 0.417057,0.411433 0.0094,0.02906 0.01397,0.05348 0.03554,0.07666 q 0.34203,0.365684 0.696816,0.755478 -0.454722,0.0099 -0.871171,-0.08253 -0.0972,-0.02164 -0.174052,-0.06831 -0.06683,-0.109427 -0.161598,-0.181141 c -0.07837,-0.08717 -0.225083,-0.203398 -0.268216,-0.308188 -0.07169,-0.378357 -0.140032,-0.726731 -0.144588,-1.118689 z"
         id="path24"
         style="stroke-width:0.0306422" /><path
         fill="#4bcfff"
         d="m 19.777873,-26.32834 c 0.04313,0.10479 0.189847,0.221017 0.268216,0.308188 -0.01397,0.07079 -0.101758,0.04915 -0.09173,0.13601 l -0.565594,-0.146211 q -0.267912,-0.310661 -0.506057,-0.619158 c -0.07533,-0.09706 -0.177089,-0.30077 -0.0568,-0.402468 0.103884,-0.08779 0.239967,0.02257 0.315298,0.100153 q 0.434371,0.446363 0.617232,0.62534 0.01185,0.01144 0.01944,-0.0019 z"
         id="path25"
         style="stroke-width:0.0306422" /><path
         fill="#4bcfff"
         d="m 22.002883,-25.721547 q -0.395186,0.06182 -0.749973,0.03338 -0.354786,-0.389794 -0.696815,-0.755477 c -0.02157,-0.02318 -0.02612,-0.0476 -0.03554,-0.07666 l 0.01367,-0.0037 0.01063,-0.0022 q 0.01367,-0.0028 0.02308,-0.01267 l 0.308616,-0.31066 a 0.01069979,0.01105708 29.512881 0 1 0.01549,0 z"
         id="path26"
         style="stroke-width:0.0306422" /><path
         fill="#acdc48"
         d="m 20.046089,-26.020152 q 0.09477,0.07171 0.161598,0.181141 -0.13183,6.17e-4 -0.253332,-0.04513 c -0.01002,-0.08686 0.07776,-0.06522 0.09173,-0.13601 z"
         id="path27"
         style="stroke-width:0.0306422" /><path
         fill="#ffffff"
         d="m 16.793168,-25.145665 1.272737,1.150527 0.957438,0.88747 q -0.02643,0.455327 -0.258193,0.823792 l -1.183128,-1.202458 -1.595326,-1.622547 q 0.1941,-0.03308 0.511221,-0.04853 0.20382,-0.0096 0.295251,0.01175 z"
         id="path28"
         style="stroke-width:0.0306422" /><path
         fill="#f3a4ff"
         d="m 17.741798,-25.026965 0.68588,0.667998 -0.361773,0.363829 -1.272737,-1.150527 c 0.31135,-0.02133 0.643051,0.05348 0.94863,0.1187 z"
         id="path29"
         style="stroke-width:0.0306422" /><path
         fill="#4bcfff"
         d="m 15.986696,-25.108881 1.595326,1.622547 -0.42374,0.421324 q -0.588678,-0.595047 -1.171282,-1.189476 -0.0027,-0.0028 -0.08353,-0.0949 -0.05133,-0.05842 -0.115123,-0.100154 l -0.42617,-0.434307 q 0.21263,-0.147757 0.402477,-0.174341 0.164028,-0.02318 0.222045,-0.0507 z"
         id="path30"
         style="stroke-width:0.0306422" /><path
         fill="#ffffff"
         d="m 17.741798,-25.026965 q 0.538558,0.09583 1.044616,0.297987 -0.0049,0.06121 0.01002,0.123028 0.09781,0.403396 0.184075,0.789481 l -0.552831,-0.542498 z"
         id="path31"
         style="stroke-width:0.0306422" /><path
         fill="#00998e"
         d="m 15.362174,-24.883845 0.42617,0.434307 q -0.08171,0.462128 -0.04313,0.951457 -0.0887,-0.06955 -0.164332,-0.145902 c -0.133349,-0.134465 -0.243916,-0.230291 -0.36876,-0.344664 -0.09629,-0.0881 -0.26123,-0.181141 -0.375138,-0.07295 -0.129704,0.12241 0.0073,0.326735 0.105403,0.424725 q 0.394882,0.393503 0.782778,0.795353 0.03949,0.0408 0.07047,0.08037 0.04891,0.103554 0.05468,0.141266 0.04982,0.339409 0.148537,0.665525 -0.07351,0.008 -0.131223,-0.02658 -0.293732,-0.353628 -0.593843,-0.6952 c -0.09933,-0.113445 -0.290086,-0.214217 -0.402476,-0.07635 -0.128185,0.15703 0.003,0.301387 0.09052,0.422251 q 0.04526,0.06182 0.07989,0.140338 -0.274291,-0.07481 -0.520941,-0.115918 -0.01245,-0.0019 -0.0325,-0.02257 c -0.137905,-0.591338 -0.195619,-1.252226 -0.08809,-1.858093 q 0.05741,0.01577 0.113908,-0.06151 0.290695,-0.399686 0.771236,-0.634304 0.01853,-0.009 0.03767,-0.0087 0.03281,9.27e-4 0.03918,0.0071 z"
         id="path32"
         style="stroke-width:0.0306422" /><path
         fill="#bb62c8"
         d="m 18.786414,-24.728978 q 0.02977,0.0096 0.04982,0.03277 0.296465,0.297678 0.59445,0.595047 c 0.07351,0.07326 0.189847,0.130138 0.28553,0.07264 0.209895,-0.125809 -0.02217,-0.323334 -0.06075,-0.44018 l 0.647607,0.151158 c 0.09173,0.421015 0.13912,0.84914 0.07715,1.271391 q -0.05893,0.103554 -0.114516,0.208653 c -0.266697,0.503548 -0.696816,0.760733 -1.231426,0.910344 q 0.02916,-0.04359 -0.01093,-0.08933 -0.13183,-0.150848 -0.258193,-0.267385 0.231767,-0.368465 0.258193,-0.823792 0.109352,0.09057 0.367241,0.337863 c 0.08414,0.08068 0.219008,0.08903 0.309831,0.01391 0.125755,-0.103863 0.05468,-0.284077 -0.0407,-0.395977 q -0.149751,-0.175886 -0.679197,-0.664597 -0.08627,-0.386085 -0.184076,-0.789481 -0.01488,-0.06182 -0.01002,-0.123028 z"
         id="path33"
         style="fill:#004455;stroke-width:0.0306422" /><path
         fill="#4bcfff"
         d="m 18.836229,-24.696212 0.81923,0.227509 c 0.03858,0.116846 0.270646,0.314371 0.06075,0.440181 -0.09568,0.05749 -0.212021,6.16e-4 -0.285531,-0.07264 q -0.297984,-0.297369 -0.59445,-0.595047 z"
         id="path34"
         style="stroke-width:0.0306422" /><path
         fill="#ffffff"
         d="m 17.158282,-23.06501 1.180092,1.199367 q -0.1051,0.01236 -0.155827,0.0677 -0.293732,0.07913 -0.598702,0.05348 l -0.903067,-0.855321 -0.935567,-0.89829 q -0.03858,-0.489329 0.04313,-0.951457 0.06379,0.04173 0.115123,0.100154 0.0808,0.09212 0.08353,0.0949 0.582604,0.594429 1.171282,1.189475 z"
         id="path35"
         style="stroke-width:0.0306422" /><path
         fill="#3b78eb"
         d="m 18.427678,-24.358967 0.552836,0.542498 q 0.529446,0.488711 0.679197,0.664597 c 0.09538,0.1119 0.166459,0.292114 0.0407,0.395977 -0.09082,0.07512 -0.22569,0.06677 -0.309831,-0.01391 q -0.257889,-0.247292 -0.367241,-0.337863 l -0.957438,-0.88747 z"
         id="path36"
         style="stroke-width:0.0306422" /><path
         fill="#acdc48"
         d="m 15.745211,-23.498081 0.935567,0.89829 -0.35023,0.361973 -0.534914,-0.523332 q -0.03098,-0.03957 -0.07047,-0.08037 -0.387896,-0.40185 -0.782778,-0.795353 c -0.09811,-0.09799 -0.235107,-0.302315 -0.105403,-0.424725 0.113908,-0.10819 0.278847,-0.01515 0.375138,0.07295 0.124844,0.114373 0.235411,0.210199 0.36876,0.344664 q 0.07564,0.07635 0.164332,0.145902 z"
         id="path37"
         style="stroke-width:0.0306422" /><path
         fill="#acdc48"
         d="m 17.582022,-23.486334 1.183128,1.202458 q 0.126363,0.116537 0.258193,0.267385 0.0401,0.04575 0.01093,0.08933 -0.317424,0.120865 -0.628167,0.121483 -0.07169,-0.0476 -0.06774,-0.05997 l -1.180092,-1.199367 z"
         id="path38"
         style="stroke-width:0.0306422" /><path
         fill="#f3a4ff"
         d="m 20.38022,-23.046154 c 0.05498,0.476656 -0.167066,1.102305 -0.406729,1.471389 -0.369063,0.569081 -1.006039,1.075721 -1.692831,1.230897 -0.396401,0.08964 -0.789157,0.08563 -1.189204,0.07079 -0.215363,-0.008 -0.413108,-0.04791 -0.620269,-0.09057 q -0.02855,-0.0059 -0.06986,0.009 -0.01701,-0.0071 -0.03736,-0.01175 -0.722332,-0.164759 -1.426741,-0.396595 -0.02521,-0.0083 -0.06561,-0.009 -0.03038,-0.03091 -0.05741,-0.03709 -0.309831,-0.06986 -0.626345,-0.136011 -0.05377,-0.01144 -0.05346,-0.06708 l 0.0039,-1.329814 q 3.04e-4,-0.04235 0.0407,-0.03246 0.132134,0.03246 0.272166,0.05842 0.02096,0.004 0.03706,-0.01236 0.02005,0.02071 0.0325,0.02257 0.246649,0.04111 0.520941,0.115918 0.303452,0.07172 0.629686,0.170014 c 0.0644,0.01947 0.129096,0.02689 0.196226,0.03895 q 0.05771,0.03462 0.131222,0.02658 0.04222,0.03833 0.08779,0.04451 0.309224,0.04111 0.615106,0.103554 0.01428,0.0028 0.02552,-0.0068 0.0076,-0.0065 0.01671,-0.0096 0.409766,0.08532 0.839885,0.07821 0.30497,0.02566 0.598702,-0.05348 l 0.223563,-0.0077 q 0.310743,-6.17e-4 0.628167,-0.121483 c 0.53461,-0.149611 0.964729,-0.406796 1.231426,-0.910344 q 0.05559,-0.105099 0.114516,-0.208653 z"
         id="path39"
         style="fill:#00aad4;stroke-width:0.0306422" /><path
         fill="#4bcfff"
         d="m 15.867624,-21.980943 c -0.06713,-0.01206 -0.13183,-0.01947 -0.196226,-0.03895 q -0.326234,-0.0983 -0.629686,-0.170014 -0.03463,-0.07851 -0.07989,-0.140338 c -0.08748,-0.120864 -0.218704,-0.265221 -0.09052,-0.422251 0.11239,-0.137866 0.303148,-0.03709 0.402476,0.07635 q 0.300111,0.341572 0.593843,0.6952 z"
         id="path40"
         style="stroke-width:0.0306422" /><path
         fill="#ffffff"
         d="m 15.795634,-22.76115 0.534914,0.523332 q 9.11e-4,0.01978 0.02126,0.04111 c 0.105403,0.111591 0.235107,0.248839 0.392149,0.37403 q -0.0091,0.0031 -0.01671,0.0096 -0.01124,0.0096 -0.02552,0.0068 -0.305882,-0.06244 -0.615105,-0.10355 -0.04556,-0.0062 -0.08779,-0.04451 -0.09872,-0.326116 -0.148537,-0.665525 -0.0058,-0.03771 -0.05468,-0.141266 z"
         id="path41"
         style="stroke-width:0.0306422" /><path
         fill="#4bcfff"
         d="m 16.680778,-22.599791 0.903067,0.855321 q -0.430119,0.0071 -0.839885,-0.07821 c -0.157042,-0.125191 -0.286746,-0.262439 -0.392149,-0.374029 q -0.02035,-0.02133 -0.02126,-0.04111 z"
         id="path42"
         style="stroke-width:0.0306422" /><path
         fill="#bb62c8"
         d="m 18.338374,-21.865643 q -0.004,0.01236 0.06774,0.05997 l -0.223565,0.0077 q 0.05073,-0.05533 0.155827,-0.0677 z"
         id="path43"
         style="stroke-width:0.0306422" /><path
         fill="#00998e"
         d="m 14.871609,-20.771993 q 0.0404,6.17e-4 0.06561,0.009 0.704409,0.231836 1.426741,0.396595 0.02035,0.0046 0.03736,0.01175 l 0.05559,0.312516 a 0.01669108,0.01610016 87.417163 0 1 -0.0158,0.01947 l -1.357485,3.08e-4 a 0.0473798,0.04791904 3.6719556 0 1 -0.04617,-0.03709 z"
         id="path44"
         style="stroke-width:0.0306422" /><path
         style="fill:none;stroke:#18181b;stroke-width:0.178901;stroke-dasharray:none;paint-order:fill markers stroke"
         d="m 16.319959,-29.448073 0.211779,0.783693"
         id="path49" /><path
         style="fill:none;stroke:#18181b;stroke-width:0.178901;stroke-dasharray:none;paint-order:fill markers stroke"
         d="m 15.537834,-29.563351 -0.534289,0.720363"
         id="path50" /><path
         style="fill:none;stroke:#18181b;stroke-width:0.178901;stroke-dasharray:none;paint-order:fill markers stroke"
         d="m 15.280316,-28.037425 0.827864,0.07837"
         id="path51" /><path
         style="fill:none;stroke:#18181b;stroke-width:0.178901;stroke-dasharray:none;paint-order:fill markers stroke"
         d="m 22.673332,-22.825861 0.673843,0.09796"
         id="path52" /><path
         style="fill:none;stroke:#18181b;stroke-width:0.178901;stroke-dasharray:none;paint-order:fill markers stroke"
         d="m 22.230521,-22.179314 0.192527,0.724917"
         id="path53" /><path
         style="fill:none;stroke:#18181b;stroke-width:0.178901;stroke-dasharray:none;paint-order:fill markers stroke"
         d="m 23.655218,-21.963798 -0.513721,0.680986"
         id="path54"
         sodipodi:nodetypes="cc" /><ellipse
         style="fill:#00c8b4;fill-opacity:1;stroke:#004455;stroke-width:0.214696;stroke-dasharray:none;stroke-opacity:1;paint-order:fill markers stroke"
         id="ellipse44"
         cx="31.39711"
         cy="-4.4965701"
         transform="matrix(0.58198838,-0.8131971,0.80339707,0.59544366,0,0)"
         rx="0.83722514"
         ry="0.8327446" /><ellipse
         style="font-variation-settings:normal;opacity:1;vector-effect:none;fill:#00c8b4;fill-opacity:1;stroke:#004455;stroke-width:0.214696;stroke-linecap:butt;stroke-linejoin:miter;stroke-miterlimit:4;stroke-dasharray:none;stroke-dashoffset:0;stroke-opacity:1;-inkscape-stroke:none;paint-order:fill markers stroke;stop-color:#000000;stop-opacity:1"
         id="ellipse45"
         cx="33.741158"
         cy="-4.4310412"
         transform="matrix(0.58198838,-0.8131971,0.80339707,0.59544366,0,0)"
         rx="0.83722514"
         ry="0.8327446" /><ellipse
         style="font-variation-settings:normal;opacity:1;vector-effect:none;fill:#00c8b4;fill-opacity:1;stroke:#004455;stroke-width:0.214696;stroke-linecap:butt;stroke-linejoin:miter;stroke-miterlimit:4;stroke-dasharray:none;stroke-dashoffset:0;stroke-opacity:1;-inkscape-stroke:none;paint-order:fill markers stroke;stop-color:#000000;stop-opacity:1"
         id="ellipse46"
         cx="32.531143"
         cy="-2.6168747"
         transform="matrix(0.58198838,-0.8131971,0.80339707,0.59544366,0,0)"
         rx="0.83722514"
         ry="0.8327446" /><ellipse
         style="font-variation-settings:normal;opacity:1;vector-effect:none;fill:#00c8b4;fill-opacity:1;stroke:#004455;stroke-width:0.214681;stroke-linecap:butt;stroke-linejoin:miter;stroke-miterlimit:4;stroke-dasharray:none;stroke-dashoffset:0;stroke-opacity:1;-inkscape-stroke:none;paint-order:fill markers stroke;stop-color:#000000;stop-opacity:1"
         id="ellipse47"
         cx="22.019281"
         cy="-22.848463"
         rx="0.82765436"
         ry="0.84225768" /><ellipse
         style="font-variation-settings:normal;opacity:1;vector-effect:none;fill:#00c8b4;fill-opacity:1;stroke:#004455;stroke-width:0.214681;stroke-linecap:butt;stroke-linejoin:miter;stroke-miterlimit:4;stroke-dasharray:none;stroke-dashoffset:0;stroke-opacity:1;-inkscape-stroke:none;paint-order:fill markers stroke;stop-color:#000000;stop-opacity:1"
         id="ellipse48"
         cx="24.052511"
         cy="-22.554579"
         rx="0.82765436"
         ry="0.84225768" /><ellipse
         style="font-variation-settings:normal;opacity:1;vector-effect:none;fill:#00c8b4;fill-opacity:1;stroke:#004455;stroke-width:0.214681;stroke-linecap:butt;stroke-linejoin:miter;stroke-miterlimit:4;stroke-dasharray:none;stroke-dashoffset:0;stroke-opacity:1;-inkscape-stroke:none;paint-order:fill markers stroke;stop-color:#000000;stop-opacity:1"
         id="ellipse49"
         cx="22.689348"
         cy="-20.75458"
         rx="0.82765436"
         ry="0.84225768" /></g><g
       id="g145"
       transform="matrix(0.90909564,0,0,0.90909564,-28.009902,15.769755)"><path
         style="font-variation-settings:normal;opacity:1;vector-effect:none;fill:none;fill-opacity:1;stroke:#18181b;stroke-width:0.178901;stroke-linecap:butt;stroke-linejoin:miter;stroke-miterlimit:4;stroke-dasharray:none;stroke-dashoffset:0;stroke-opacity:1;-inkscape-stroke:none;paint-order:fill markers stroke;stop-color:#000000;stop-opacity:1"
         d="m 40.338694,-6.0317543 -3.625616,-0.97148"
         id="path59" /><path
         style="font-variation-settings:normal;opacity:1;vector-effect:none;fill:none;fill-opacity:1;stroke:#18181b;stroke-width:0.178901;stroke-linecap:butt;stroke-linejoin:miter;stroke-miterlimit:4;stroke-dasharray:none;stroke-dashoffset:0;stroke-opacity:1;-inkscape-stroke:none;paint-order:fill markers stroke;stop-color:#000000;stop-opacity:1"
         d="M 42.130574,-8.2984533 40.58095,-10.982481"
         id="path60" /><path
         style="font-variation-settings:normal;opacity:1;vector-effect:none;fill:none;fill-opacity:1;stroke:#18181b;stroke-width:0.178901;stroke-linecap:butt;stroke-linejoin:miter;stroke-miterlimit:4;stroke-dasharray:none;stroke-dashoffset:0;stroke-opacity:1;-inkscape-stroke:none;paint-order:fill markers stroke;stop-color:#000000;stop-opacity:1"
         d="m 34.918815,-15.321056 3.625616,0.97148"
         id="path61" /><path
         style="font-variation-settings:normal;opacity:1;vector-effect:none;fill:none;fill-opacity:1;stroke:#18181b;stroke-width:0.178901;stroke-linecap:butt;stroke-linejoin:miter;stroke-miterlimit:4;stroke-dasharray:none;stroke-dashoffset:0;stroke-opacity:1;-inkscape-stroke:none;paint-order:fill markers stroke;stop-color:#000000;stop-opacity:1"
         d="m 33.126935,-13.054357 1.549624,2.684028"
         id="path62" /><path
         style="fill:none;stroke:#18181b;stroke-width:0.178901;stroke-dasharray:none;paint-order:fill markers stroke"
         d="m 35.672283,-12.896167 4.139319,4.2907237"
         id="path63" /><path
         fill="#00998e"
         d="m 42.133168,-15.126454 -1.500857,-0.382685 a 0.02843576,0.02764455 87.312192 0 1 -0.01762,-0.01422 l -0.0039,-0.0083 -0.05042,-0.291496 a 0.02246883,0.02257455 14.780021 0 1 0.02217,-0.02658 h 1.370546 q 0.01853,0 0.02248,0.01855 z"
         id="path64"
         style="stroke-width:0.0306422" /><path
         fill="#f3a4ff"
         d="m 40.610744,-15.531705 0.0039,0.0083 a 0.02843576,0.02764455 87.312192 0 0 0.01762,0.01422 l 1.500857,0.382684 c 0.137905,0.02442 0.26366,0.07326 0.399743,0.09521 q 0.181342,0.02937 0.348408,0.0915 a 0.0501197,0.05100403 0 0 1 0.03281,0.04791 l -0.0043,1.361344 q -3.03e-4,0.05193 -0.05103,0.05657 -0.139424,0.01206 -0.27095,-0.0476 -0.01823,-0.0084 -0.05316,0.01236 -0.0046,-0.02133 -0.0164,-0.02442 -0.734745,-0.178669 -1.46224,-0.387322 -0.0565,-0.01638 -0.03918,0.02504 c -0.04496,-0.04977 -0.218705,-0.08779 -0.292517,-0.109117 q -0.110871,-0.04791 -0.160991,-0.05966 -0.415538,-0.09985 -0.82257,-0.168777 -0.110568,9.27e-4 -0.362077,-0.04297 -0.118161,-0.0204 -0.593235,-0.04266 -0.393668,-0.07017 -0.841708,0.02813 -0.519118,0.08686 -0.975359,0.409887 -0.100543,0.07141 -0.183773,0.0915 0.01063,-0.105099 0.06227,-0.214835 c 0.156131,-0.331371 0.344763,-0.593192 0.623915,-0.860886 0.337776,-0.323953 0.723242,-0.568772 1.179787,-0.68469 q 0.713219,-0.181142 1.434335,-0.06121 c 0.121806,0.0204 0.325626,0.02906 0.485705,0.09397 q 0.02035,0.0083 0.0401,-0.01453 z"
         id="path65"
         style="fill:#00aad4;stroke-width:0.0306422" /><path
         fill="#3b78eb"
         d="m 38.785476,-14.319045 0.134867,0.157958 1.13544,1.184839 -0.403388,0.40525 -1.24145,-1.241407 -0.467177,-0.478511 q 0.44804,-0.0983 0.841708,-0.02813 z"
         id="path66"
         style="stroke-width:0.0306422" /><path
         fill="#bb62c8"
         d="m 38.785476,-14.319045 q 0.475074,0.02226 0.593235,0.04266 0.251509,0.04389 0.362077,0.04297 -0.02339,0.01978 -0.0243,0.02349 -0.0027,0.01267 0.0079,0.01917 -0.397616,-0.05162 -0.804042,0.02967 z"
         id="path67"
         style="fill:#004455;fill-opacity:1;stroke-width:0.0306422" /><path
         fill="#bb62c8"
         d="m 37.943768,-14.290916 0.467177,0.478511 q -0.207162,0.209889 -0.330486,0.505712 -0.174356,-0.176195 -0.327449,-0.332298 c -0.105707,-0.107882 -0.260319,-0.207417 -0.383644,-0.0949 -0.174052,0.158267 -0.0027,0.361665 0.106618,0.477583 q 0.256978,0.272022 0.508488,0.539097 c 0.0046,0.391958 0.0729,0.740332 0.144588,1.118689 q -0.0076,0.01329 -0.01944,0.0019 -0.182861,-0.178983 -0.617232,-0.625346 c -0.07533,-0.07759 -0.211414,-0.187942 -0.315298,-0.100153 -0.120287,0.101699 -0.01853,0.305406 0.0568,0.402468 q 0.238145,0.308497 0.506057,0.619158 l -1.029124,-0.346827 q -0.0565,-0.251002 -0.08991,-0.577737 c -0.05407,-0.527041 -0.02521,-1.073866 0.163724,-1.564432 q 0.08323,-0.02009 0.183773,-0.0915 0.456241,-0.323026 0.975359,-0.409887 z"
         id="path68"
         style="fill:#004455;stroke-width:0.0306422" /><path
         fill="#acdc48"
         d="m 39.740788,-14.23342 q 0.407032,0.06893 0.82257,0.168777 0.05012,0.01175 0.160991,0.05966 l 0.158864,0.190415 -0.333828,0.354555 q -0.364202,-0.325498 -0.72871,-0.67418 c -0.02795,-0.02689 -0.06227,-0.03895 -0.09629,-0.05657 q -0.01063,-0.0065 -0.0079,-0.01917 9.13e-4,-0.0037 0.0243,-0.02349 z"
         id="path69"
         style="stroke-width:0.0306422" /><path
         fill="#ffffff"
         d="m 39.724385,-14.190762 c 0.03402,0.01762 0.06835,0.02967 0.09629,0.05657 q 0.364507,0.348682 0.72871,0.67418 0.04405,0.03678 0.0811,0.07573 c 0.165243,0.174032 0.355698,0.331681 0.52975,0.497676 q 0.05832,0.05564 0.07837,0.09861 c 0.05711,0.37712 0.0647,0.751768 0.08657,1.055628 q -0.03493,-6.16e-4 -0.06652,-0.03308 -0.578655,-0.59381 -1.162777,-1.181748 -0.01701,-0.01731 -0.0401,-0.02906 l -1.13544,-1.184839 q 0.406426,-0.0813 0.804042,-0.02967 z"
         id="path70"
         style="stroke-width:0.0306422" /><path
         fill="#ffffff"
         d="m 40.724349,-14.004984 c 0.07381,0.02133 0.247561,0.05935 0.292517,0.109118 l 0.0565,0.19567 q -0.03281,0.01917 -0.06075,-0.01113 -0.05954,-0.06522 -0.1294,-0.103244 z"
         id="path71"
         style="stroke-width:0.0306422" /><path
         fill="#00998e"
         d="m 42.534734,-13.509163 q 0.07989,0.390103 0.101758,0.706019 -0.191062,0.424107 -0.376961,0.666144 -0.238448,0.310042 -0.611764,0.605247 -0.04556,0.03617 -0.102366,0.03895 l -0.220223,-0.239564 c -0.02187,-0.303861 -0.02946,-0.678508 -0.08657,-1.055629 q 0.05133,0.04019 0.09811,0.07017 c 0.145499,0.09335 0.366633,0.379593 0.554658,0.37032 0.176178,-0.0087 0.224475,-0.161358 0.141854,-0.300151 q -0.05376,-0.08964 -0.126059,-0.164449 -0.388504,-0.400923 -0.780349,-0.799063 c -0.02582,-0.02597 -0.03888,-0.05719 -0.05346,-0.08902 l -0.0565,-0.19567 q -0.01731,-0.04142 0.03918,-0.02504 0.727495,0.208652 1.462281,0.387321 0.01185,0.0031 0.0164,0.02442 z"
         id="path72"
         style="stroke-width:0.0306422" /><path
         fill="#4bcfff"
         d="m 40.883213,-13.814569 q 0.06986,0.03802 0.1294,0.103244 0.02795,0.03029 0.06075,0.01113 c 0.01458,0.03184 0.02764,0.06306 0.05346,0.08903 q 0.391845,0.398141 0.780349,0.799063 0.07229,0.07481 0.126059,0.16445 c 0.08262,0.138793 0.03432,0.291496 -0.141854,0.300151 -0.188025,0.0093 -0.409159,-0.276967 -0.554658,-0.37032 q -0.04678,-0.02998 -0.09811,-0.07017 -0.02005,-0.04297 -0.07837,-0.09861 c -0.174052,-0.165995 -0.364507,-0.323644 -0.52975,-0.497676 q -0.03706,-0.03895 -0.0811,-0.07573 z"
         id="path73"
         style="stroke-width:0.0306422" /><path
         fill="#ffffff"
         d="m 38.410945,-13.812405 1.24145,1.241407 q 0.0322,0.051 0.04313,0.06213 0.636672,0.643269 1.270306,1.289011 0.0164,0.017 0.01063,0.0544 -0.316209,0.136629 -0.622395,0.173723 l -1.110834,-1.127962 a 0.01069979,0.01105708 29.512881 0 0 -0.01549,0 l -0.308616,0.310661 q -0.0094,0.0099 -0.02308,0.01267 l -0.01063,0.0022 q -0.0061,-0.01638 0.0082,-0.02998 0.147625,-0.141884 0.286745,-0.292114 c 0.007,-0.0074 0.01428,-0.0087 0.02096,-0.01329 a 0.02001943,0.01951132 71.942248 0 0 0.003,-0.03091 l -1.123898,-1.146198 q 0.123324,-0.295823 0.330486,-0.505712 z"
         id="path74"
         style="stroke-width:0.0306422" /><path
         fill="#acdc48"
         d="m 38.080459,-13.306693 1.123896,1.1462 a 0.02001943,0.01951132 71.942248 0 1 -0.003,0.03091 c -0.0067,0.0046 -0.01397,0.0059 -0.02096,0.01329 q -0.13912,0.150229 -0.286746,0.292114 -0.01428,0.0136 -0.0082,0.02998 l -0.01367,0.0037 c -0.153092,-0.07419 -0.294946,-0.287786 -0.417056,-0.411433 -0.0893,-0.09057 -0.17557,-0.199688 -0.253028,-0.282222 q -0.107529,-0.114372 -0.217185,-0.233073 -0.25151,-0.267075 -0.508488,-0.539097 c -0.109352,-0.115918 -0.28067,-0.319316 -0.106618,-0.477583 0.123325,-0.112518 0.277937,-0.01298 0.383644,0.0949 q 0.153093,0.156103 0.327449,0.332298 z"
         id="path75"
         style="stroke-width:0.0306422" /><path
         fill="#f3a4ff"
         d="m 40.055783,-12.976248 q 0.02309,0.01175 0.0401,0.02906 0.584122,0.587937 1.162776,1.181748 0.03159,0.03246 0.06652,0.03308 l 0.220223,0.239564 q -0.007,0.03586 -0.03584,0.05379 -0.257889,0.159195 -0.533092,0.273567 0.0058,-0.0374 -0.01063,-0.0544 -0.633635,-0.645742 -1.270307,-1.289011 -0.01093,-0.01113 -0.04313,-0.06213 z"
         id="path76"
         style="stroke-width:0.0306422" /><path
         fill="#00c8b4"
         d="m 42.636492,-12.803144 q 0.02977,0.08006 0.03463,0.145903 0.09872,1.326105 -0.781564,2.284052 -0.469302,0.5106587 -1.025176,0.7190027 -0.09416,0.03524 -0.356305,0.09366 c -0.48267,0.107572 -1.046745,0.111281 -1.533058,0.02627 q -0.16099,-0.02844 -0.320766,-0.05348 l -0.647607,-0.151158 -0.81923,-0.227509 q -0.02005,-0.02318 -0.04981,-0.03277 -0.506058,-0.2021607 -1.044616,-0.2979867 c -0.305579,-0.06522 -0.63728,-0.140029 -0.94863,-0.1187 q -0.09143,-0.02133 -0.295251,-0.01175 -0.317121,0.01546 -0.511221,0.04853 -0.05802,0.02751 -0.222045,0.0507 -0.189847,0.02658 -0.402477,0.174341 -0.0064,-0.0062 -0.03918,-0.0071 -0.01914,-3.09e-4 -0.03767,0.0087 -0.480541,0.2346177 -0.771236,0.6343037 -0.0565,0.07728 -0.113908,0.06151 3.04e-4,-0.09984 0.02703,-0.195051 c 0.174053,-0.6120527 0.519424,-1.2516117 1.011508,-1.6553167 0.257281,-0.211125 0.558303,-0.403395 0.888486,-0.467382 0.184683,-0.03586 0.370885,-0.07759 0.554658,-0.0847 q 0.313172,-0.01206 0.546153,0.02071 0.366329,0.05131 0.931619,0.191034 l 1.029124,0.346827 0.565594,0.146211 q 0.121502,0.04575 0.253332,0.04513 0.07685,0.04668 0.174052,0.06831 0.416449,0.09243 0.871171,0.08253 0.354787,0.02844 0.749973,-0.03338 0.306186,-0.03709 0.622396,-0.173722 0.275203,-0.114373 0.533092,-0.273568 0.02886,-0.01793 0.03584,-0.05379 0.0568,-0.0028 0.102366,-0.03895 0.373316,-0.295204 0.611764,-0.605247 0.185899,-0.242037 0.376961,-0.666144 z"
         id="path77"
         style="stroke-width:0.0306422" /><path
         fill="#ffffff"
         d="m 37.984472,-12.71721 q 0.109656,0.118701 0.217185,0.233073 c 0.07746,0.08253 0.163725,0.191652 0.253028,0.282222 0.12211,0.123647 0.263964,0.337245 0.417057,0.411433 0.0094,0.02906 0.01397,0.05348 0.03554,0.07666 q 0.34203,0.365684 0.696816,0.755478 -0.454722,0.0099 -0.871171,-0.08253 -0.0972,-0.02164 -0.174052,-0.06831 -0.06683,-0.109427 -0.161598,-0.181141 c -0.07837,-0.08717 -0.225083,-0.203398 -0.268216,-0.308188 -0.07169,-0.378357 -0.140032,-0.726731 -0.144588,-1.118689 z"
         id="path78"
         style="stroke-width:0.0306422" /><path
         fill="#4bcfff"
         d="m 38.12906,-11.598521 c 0.04313,0.10479 0.189847,0.221017 0.268216,0.308188 -0.01397,0.07079 -0.101758,0.04915 -0.09173,0.13601 l -0.565594,-0.146211 q -0.267912,-0.310661 -0.506057,-0.619158 c -0.07533,-0.09706 -0.177089,-0.30077 -0.0568,-0.402468 0.103884,-0.08779 0.239967,0.02257 0.315298,0.100153 q 0.434371,0.446363 0.617232,0.62534 0.01185,0.01144 0.01944,-0.0019 z"
         id="path79"
         style="stroke-width:0.0306422" /><path
         fill="#4bcfff"
         d="m 40.35407,-10.991728 q -0.395186,0.06182 -0.749973,0.03338 -0.354786,-0.389794 -0.696815,-0.755477 c -0.02157,-0.02318 -0.02612,-0.0476 -0.03554,-0.07666 l 0.01367,-0.0037 0.01063,-0.0022 q 0.01367,-0.0028 0.02308,-0.01267 l 0.308616,-0.31066 a 0.01069979,0.01105708 29.512881 0 1 0.01549,0 z"
         id="path80"
         style="stroke-width:0.0306422" /><path
         fill="#acdc48"
         d="m 38.397276,-11.290333 q 0.09477,0.07171 0.161598,0.181141 -0.13183,6.17e-4 -0.253332,-0.04513 c -0.01002,-0.08686 0.07776,-0.06522 0.09173,-0.13601 z"
         id="path81"
         style="stroke-width:0.0306422" /><path
         fill="#ffffff"
         d="m 35.144355,-10.415846 1.272737,1.1505267 0.957438,0.88747 q -0.02643,0.455327 -0.258193,0.823792 l -1.183128,-1.202458 -1.595326,-1.6225467 q 0.1941,-0.03308 0.511221,-0.04853 0.20382,-0.0096 0.295251,0.01175 z"
         id="path82"
         style="stroke-width:0.0306422" /><path
         fill="#f3a4ff"
         d="m 36.092985,-10.297146 0.68588,0.6679977 -0.361773,0.363829 -1.272737,-1.1505267 c 0.31135,-0.02133 0.643051,0.05348 0.94863,0.1187 z"
         id="path83"
         style="stroke-width:0.0306422" /><path
         fill="#4bcfff"
         d="m 34.337883,-10.379062 1.595326,1.6225467 -0.42374,0.421324 q -0.588678,-0.595047 -1.171282,-1.189476 -0.0027,-0.0028 -0.08353,-0.0949 -0.05133,-0.05842 -0.115123,-0.100154 l -0.42617,-0.4343067 q 0.21263,-0.147757 0.402477,-0.174341 0.164028,-0.02318 0.222045,-0.0507 z"
         id="path84"
         style="stroke-width:0.0306422" /><path
         fill="#ffffff"
         d="m 36.092985,-10.297146 q 0.538558,0.09583 1.044616,0.2979867 -0.0049,0.06121 0.01002,0.123028 0.09781,0.403396 0.184075,0.789481 l -0.552831,-0.542498 z"
         id="path85"
         style="stroke-width:0.0306422" /><path
         fill="#00998e"
         d="m 33.713361,-10.154026 0.42617,0.4343067 q -0.08171,0.462128 -0.04313,0.951457 -0.0887,-0.06955 -0.164332,-0.145902 c -0.133349,-0.134465 -0.243916,-0.230291 -0.36876,-0.344664 -0.09629,-0.0881 -0.26123,-0.181141 -0.375138,-0.07295 -0.129704,0.12241 0.0073,0.326735 0.105403,0.424725 q 0.394882,0.393503 0.782778,0.795353 0.03949,0.0408 0.07047,0.08037 0.04891,0.103554 0.05468,0.141266 0.04982,0.339409 0.148537,0.665525 -0.07351,0.008 -0.131223,-0.02658 -0.293732,-0.353628 -0.593843,-0.6952 c -0.09933,-0.113445 -0.290086,-0.214217 -0.402476,-0.07635 -0.128185,0.15703 0.003,0.301387 0.09052,0.422251 q 0.04526,0.06182 0.07989,0.140338 -0.274291,-0.07481 -0.520941,-0.115918 -0.01245,-0.0019 -0.0325,-0.02257 c -0.137905,-0.591338 -0.195619,-1.252226 -0.08809,-1.858093 q 0.05741,0.01577 0.113908,-0.06151 0.290695,-0.399686 0.771236,-0.6343037 0.01853,-0.009 0.03767,-0.0087 0.03281,9.27e-4 0.03918,0.0071 z"
         id="path86"
         style="stroke-width:0.0306422" /><path
         fill="#bb62c8"
         d="m 37.137601,-9.9991593 q 0.02977,0.0096 0.04982,0.03277 0.296465,0.297678 0.59445,0.595047 c 0.07351,0.07326 0.189847,0.130138 0.28553,0.07264 0.209895,-0.125809 -0.02217,-0.323334 -0.06075,-0.44018 l 0.647607,0.151158 c 0.09173,0.421015 0.13912,0.84914 0.07715,1.271391 q -0.05893,0.103554 -0.114516,0.208653 c -0.266697,0.503548 -0.696816,0.760733 -1.231426,0.910344 q 0.02916,-0.04359 -0.01093,-0.08933 -0.13183,-0.150848 -0.258193,-0.267385 0.231767,-0.368465 0.258193,-0.823792 0.109352,0.09057 0.367241,0.337863 c 0.08414,0.08068 0.219008,0.08903 0.309831,0.01391 0.125755,-0.103863 0.05468,-0.284077 -0.0407,-0.395977 q -0.149751,-0.175886 -0.679197,-0.664597 -0.08627,-0.386085 -0.184076,-0.789481 -0.01488,-0.06182 -0.01002,-0.123028 z"
         id="path87"
         style="fill:#004455;stroke-width:0.0306422" /><path
         fill="#4bcfff"
         d="m 37.187416,-9.9663933 0.81923,0.227509 c 0.03858,0.116846 0.270646,0.314371 0.06075,0.440181 -0.09568,0.05749 -0.212021,6.16e-4 -0.285531,-0.07264 q -0.297984,-0.297369 -0.59445,-0.595047 z"
         id="path88"
         style="stroke-width:0.0306422" /><path
         fill="#ffffff"
         d="m 35.509469,-8.3351913 1.180092,1.199367 q -0.1051,0.01236 -0.155827,0.0677 -0.293732,0.07913 -0.598702,0.05348 l -0.903067,-0.855321 -0.935567,-0.89829 q -0.03858,-0.489329 0.04313,-0.951457 0.06379,0.04173 0.115123,0.100154 0.0808,0.09212 0.08353,0.0949 0.582604,0.594429 1.171282,1.189475 z"
         id="path89"
         style="stroke-width:0.0306422" /><path
         fill="#3b78eb"
         d="m 36.778865,-9.6291483 0.552836,0.542498 q 0.529446,0.488711 0.679197,0.664597 c 0.09538,0.1119 0.166459,0.292114 0.0407,0.395977 -0.09082,0.07512 -0.22569,0.06677 -0.309831,-0.01391 q -0.257889,-0.247292 -0.367241,-0.337863 l -0.957438,-0.88747 z"
         id="path90"
         style="stroke-width:0.0306422" /><path
         fill="#acdc48"
         d="m 34.096398,-8.7682623 0.935567,0.89829 -0.35023,0.361973 -0.534914,-0.523332 q -0.03098,-0.03957 -0.07047,-0.08037 -0.387896,-0.40185 -0.782778,-0.795353 c -0.09811,-0.09799 -0.235107,-0.302315 -0.105403,-0.424725 0.113908,-0.10819 0.278847,-0.01515 0.375138,0.07295 0.124844,0.114373 0.235411,0.210199 0.36876,0.344664 q 0.07564,0.07635 0.164332,0.145902 z"
         id="path91"
         style="stroke-width:0.0306422" /><path
         fill="#acdc48"
         d="m 35.933209,-8.7565153 1.183128,1.202458 q 0.126363,0.116537 0.258193,0.267385 0.0401,0.04575 0.01093,0.08933 -0.317424,0.120865 -0.628167,0.121483 -0.07169,-0.0476 -0.06774,-0.05997 l -1.180092,-1.199367 z"
         id="path92"
         style="stroke-width:0.0306422" /><path
         fill="#f3a4ff"
         d="m 38.731407,-8.3163353 c 0.05498,0.476656 -0.167066,1.102305 -0.406729,1.471389 -0.369063,0.569081 -1.006039,1.075721 -1.692831,1.230897 -0.396401,0.08964 -0.789157,0.08563 -1.189204,0.07079 -0.215363,-0.008 -0.413108,-0.04791 -0.620269,-0.09057 q -0.02855,-0.0059 -0.06986,0.009 -0.01701,-0.0071 -0.03736,-0.01175 -0.722332,-0.164759 -1.426741,-0.396595 -0.02521,-0.0083 -0.06561,-0.009 -0.03038,-0.03091 -0.05741,-0.03709 -0.309831,-0.06986 -0.626345,-0.136011 -0.05377,-0.01144 -0.05346,-0.06708 l 0.0039,-1.329814 q 3.04e-4,-0.04235 0.0407,-0.03246 0.132134,0.03246 0.272166,0.05842 0.02096,0.004 0.03706,-0.01236 0.02005,0.02071 0.0325,0.02257 0.246649,0.04111 0.520941,0.115918 0.303452,0.07172 0.629686,0.170014 c 0.0644,0.01947 0.129096,0.02689 0.196226,0.03895 q 0.05771,0.03462 0.131222,0.02658 0.04222,0.03833 0.08779,0.04451 0.309224,0.04111 0.615106,0.103554 0.01428,0.0028 0.02552,-0.0068 0.0076,-0.0065 0.01671,-0.0096 0.409766,0.08532 0.839885,0.07821 0.30497,0.02566 0.598702,-0.05348 l 0.223563,-0.0077 q 0.310743,-6.17e-4 0.628167,-0.121483 c 0.53461,-0.149611 0.964729,-0.406796 1.231426,-0.910344 q 0.05559,-0.105099 0.114516,-0.208653 z"
         id="path93"
         style="fill:#00aad4;stroke-width:0.0306422" /><path
         fill="#4bcfff"
         d="m 34.218811,-7.2511243 c -0.06713,-0.01206 -0.13183,-0.01947 -0.196226,-0.03895 q -0.326234,-0.0983 -0.629686,-0.170014 -0.03463,-0.07851 -0.07989,-0.140338 c -0.08748,-0.120864 -0.218704,-0.265221 -0.09052,-0.422251 0.11239,-0.137866 0.303148,-0.03709 0.402476,0.07635 q 0.300111,0.341572 0.593843,0.6952 z"
         id="path94"
         style="stroke-width:0.0306422" /><path
         fill="#ffffff"
         d="m 34.146821,-8.0313313 0.534914,0.523332 q 9.11e-4,0.01978 0.02126,0.04111 c 0.105403,0.111591 0.235107,0.248839 0.392149,0.37403 q -0.0091,0.0031 -0.01671,0.0096 -0.01124,0.0096 -0.02552,0.0068 -0.305882,-0.06244 -0.615105,-0.10355 -0.04556,-0.0062 -0.08779,-0.04451 -0.09872,-0.326116 -0.148537,-0.665525 -0.0058,-0.03771 -0.05468,-0.141266 z"
         id="path95"
         style="stroke-width:0.0306422" /><path
         fill="#4bcfff"
         d="m 35.031965,-7.8699723 0.903067,0.855321 q -0.430119,0.0071 -0.839885,-0.07821 c -0.157042,-0.125191 -0.286746,-0.262439 -0.392149,-0.374029 q -0.02035,-0.02133 -0.02126,-0.04111 z"
         id="path96"
         style="stroke-width:0.0306422" /><path
         fill="#bb62c8"
         d="m 36.689561,-7.1358243 q -0.004,0.01236 0.06774,0.05997 l -0.223565,0.0077 q 0.05073,-0.05533 0.155827,-0.0677 z"
         id="path97"
         style="stroke-width:0.0306422" /><path
         fill="#00998e"
         d="m 33.222796,-6.0421743 q 0.0404,6.17e-4 0.06561,0.009 0.704409,0.231836 1.426741,0.396595 0.02035,0.0046 0.03736,0.01175 l 0.05559,0.312516 a 0.01669108,0.01610016 87.417163 0 1 -0.0158,0.01947 l -1.357485,3.08e-4 a 0.0473798,0.04791904 3.6719556 0 1 -0.04617,-0.03709 z"
         id="path98"
         style="stroke-width:0.0306422" /><path
         style="fill:none;stroke:#18181b;stroke-width:0.178901;stroke-dasharray:none;paint-order:fill markers stroke"
         d="m 34.671146,-14.718254 0.211779,0.783693"
         id="path99" /><path
         style="fill:none;stroke:#18181b;stroke-width:0.178901;stroke-dasharray:none;paint-order:fill markers stroke"
         d="m 33.889021,-14.833532 -0.534289,0.720363"
         id="path100" /><path
         style="fill:none;stroke:#18181b;stroke-width:0.178901;stroke-dasharray:none;paint-order:fill markers stroke"
         d="m 33.631503,-13.307606 0.827864,0.07837"
         id="path101" /><path
         style="fill:none;stroke:#18181b;stroke-width:0.178901;stroke-dasharray:none;paint-order:fill markers stroke"
         d="m 41.024519,-8.0960423 0.673843,0.09796"
         id="path102" /><path
         style="fill:none;stroke:#18181b;stroke-width:0.178901;stroke-dasharray:none;paint-order:fill markers stroke"
         d="m 40.581708,-7.4494953 0.192527,0.724917"
         id="path103" /><path
         style="fill:none;stroke:#18181b;stroke-width:0.178901;stroke-dasharray:none;paint-order:fill markers stroke"
         d="m 42.006405,-7.2339793 -0.513721,0.680986"
         id="path139"
         sodipodi:nodetypes="cc" /><path
         style="-inkscape-font-specification:cream;stroke-width:0.377457"
         d="m 33.795491,-2.981554 c 0.197284,-0.1811797 0.326123,-0.4428836 0.326123,-0.736797 -0.004,-0.5234076 -0.418726,-0.9622648 -0.942134,-0.9904481 -0.571722,-0.032207 -1.046815,0.4267782 -1.046815,0.9904481 0,0.5475651 0.442883,0.9904486 0.986422,0.9944743 0.18118,0 0.599906,0.032207 0.599906,0.3583332 0,0.3583327 -0.708614,0.4670406 -1.119287,0.2778087 -0.02819,-0.016107 -0.06442,-0.004 -0.08455,0.020129 l -0.11676,0.1650744 c -0.02416,0.032207 -0.01611,0.076498 0.01611,0.1006557 0.611984,0.3663854 1.674905,0.1489696 1.674905,-0.5636699 0,-0.2415727 -0.104681,-0.4308052 -0.289888,-0.5556173 -0.02013,-0.016107 -0.02416,-0.044286 -0.004,-0.060393 z m -1.260205,-0.6562723 c -0.05234,-0.3905429 0.277809,-0.7206923 0.668351,-0.6723778 0.26573,0.036235 0.483146,0.2496253 0.515356,0.5153555 0.04831,0.3905422 -0.281835,0.7206916 -0.668352,0.6723772 -0.269756,-0.036235 -0.483145,-0.2496254 -0.515355,-0.5153549 z m 3.716697,-0.2375469 c 0,-0.3462542 -0.338202,-0.7810851 -0.789138,-0.8293995 -0.555617,-0.056364 -1.046815,0.2737822 -1.119287,0.8293995 -0.08455,0.6361418 0.378464,1.1514965 1.002527,1.1514965 0.253652,0 0.511329,-0.080524 0.748876,-0.3140444 0.03221,-0.028185 0.03221,-0.080524 0,-0.1087078 l -0.161049,-0.1570223 c -0.02819,-0.028185 -0.0765,-0.028185 -0.104682,0 -0.128838,0.1167605 -0.31807,0.1932582 -0.475092,0.1932582 -0.277809,0 -0.535487,-0.11676 -0.611985,-0.4267782 -0.004,-0.024157 0.01208,-0.044286 0.03624,-0.044286 h 1.232021 c 0.112734,0 0.233521,-0.088577 0.237546,-0.2013103 0.004,-0.052342 0.004,-0.092603 0.004,-0.092603 z m -0.897845,-0.4911981 c 0.322096,0 0.46704,0.2335206 0.527433,0.4388573 0.008,0.024157 -0.008,0.052342 -0.03623,0.052342 h -1.034736 c -0.02819,0 -0.04429,-0.028185 -0.03624,-0.052342 0.05636,-0.2254679 0.277809,-0.4388573 0.579775,-0.4388573 z m 2.80274,0.4992508 c 0,-0.4267788 -0.269757,-0.8455049 -0.845505,-0.8455049 -0.209363,0 -0.358333,0.076498 -0.454962,0.209363 v -0.1046815 c -0.004,-0.036235 -0.03221,-0.068446 -0.07247,-0.068446 h -0.241573 c -0.04026,0 -0.07247,0.032207 -0.07247,0.072472 l -0.004,0.6925084 0.01208,1.1152606 c 0,0.040264 0.03221,0.072472 0.07247,0.072472 h 0.225467 c 0.04026,0 0.07247,-0.032207 0.07247,-0.072472 l 0.01208,-1.0709719 c 0,-0.6280892 0.897845,-0.6280892 0.897845,0 l 0.01611,1.0709719 c 0,0.040264 0.03221,0.072472 0.07247,0.072472 h 0.225468 c 0.03623,0 0.06844,-0.032207 0.06844,-0.072472 z m 0.761451,-1.2722837 c 0,0.1368917 -0.116759,0.2496253 -0.253651,0.2496253 -0.140917,0 -0.253651,-0.1127336 -0.253651,-0.2496253 0,-0.1409175 0.112734,-0.2536511 0.253651,-0.2536511 0.136892,0 0.253651,0.1127336 0.253651,0.2536511 z m -0.136891,0.4267788 h -0.23352 c -0.04026,0 -0.07247,0.032207 -0.07247,0.072472 l -0.01208,0.6441939 v 0.5556172 l 0.01208,0.6482202 c 0,0.036235 0.03221,0.068445 0.07247,0.068445 h 0.23352 c 0.04026,0 0.06845,-0.032207 0.06845,-0.068445 l 0.01611,-0.6482202 v -0.5556172 l -0.01611,-0.6441939 c 0,-0.040264 -0.02819,-0.072472 -0.06845,-0.072472 z m 3.374463,0.8455049 c 0,-0.4267788 -0.26573,-0.8455049 -0.845505,-0.8455049 -0.241572,0 -0.463014,0.088577 -0.624063,0.3019661 -0.26573,-0.3462542 -0.88174,-0.4227525 -1.123313,-0.092603 v -0.1046816 c -0.004,-0.036235 -0.03221,-0.068446 -0.07247,-0.068446 h -0.241573 c -0.04026,0 -0.07247,0.032207 -0.07247,0.072472 l -0.004,0.6925084 0.01208,1.1152606 c 0,0.040264 0.03221,0.072472 0.07247,0.072472 h 0.225467 c 0.04026,0 0.07247,-0.032207 0.07247,-0.072472 l 0.01208,-1.0709719 c 0,-0.6280892 0.897845,-0.6280892 0.897845,0 l 0.01611,1.0709719 c 0,0.040264 0.03221,0.072472 0.07247,0.072472 h 0.225469 c 0.04026,0 0.07247,-0.032207 0.07247,-0.072472 l 0.01208,-1.0709719 c 0,-0.6321155 0.897845,-0.6240634 0.897845,0 l 0.01208,1.0709719 c 0,0.040264 0.03221,0.072472 0.07247,0.072472 h 0.225468 c 0.04026,0 0.07247,-0.032207 0.07247,-0.072472 z m 0.612486,-1.8802417 H 42.53084 c -0.03624,0 -0.06845,0.028185 -0.06845,0.068446 l -0.01208,0.6441939 v 1.5943803 l 0.01208,0.6482202 c 0,0.036235 0.03221,0.068445 0.06845,0.068445 h 0.237547 c 0.03623,0 0.06844,-0.032207 0.06844,-0.068445 l 0.01208,-0.6482202 v -1.5943803 l -0.01208,-0.6441939 c 0,-0.040264 -0.03221,-0.068446 -0.06844,-0.068446 z"
         id="path140"
         aria-label="geniml" /><ellipse
         style="fill:#00c8b4;fill-opacity:1;stroke:#004455;stroke-width:0.214696;stroke-dasharray:none;stroke-opacity:1;paint-order:fill markers stroke"
         id="ellipse140"
         cx="30.490189"
         cy="19.002401"
         transform="matrix(0.58198838,-0.8131971,0.80339707,0.59544366,0,0)"
         rx="0.83722514"
         ry="0.8327446" /><ellipse
         style="font-variation-settings:normal;opacity:1;vector-effect:none;fill:#00c8b4;fill-opacity:1;stroke:#004455;stroke-width:0.214696;stroke-linecap:butt;stroke-linejoin:miter;stroke-miterlimit:4;stroke-dasharray:none;stroke-dashoffset:0;stroke-opacity:1;-inkscape-stroke:none;paint-order:fill markers stroke;stop-color:#000000;stop-opacity:1"
         id="ellipse141"
         cx="32.834236"
         cy="19.06793"
         transform="matrix(0.58198838,-0.8131971,0.80339707,0.59544366,0,0)"
         rx="0.83722514"
         ry="0.8327446" /><ellipse
         style="font-variation-settings:normal;opacity:1;vector-effect:none;fill:#00c8b4;fill-opacity:1;stroke:#004455;stroke-width:0.214696;stroke-linecap:butt;stroke-linejoin:miter;stroke-miterlimit:4;stroke-dasharray:none;stroke-dashoffset:0;stroke-opacity:1;-inkscape-stroke:none;paint-order:fill markers stroke;stop-color:#000000;stop-opacity:1"
         id="ellipse142"
         cx="31.624222"
         cy="20.882095"
         transform="matrix(0.58198838,-0.8131971,0.80339707,0.59544366,0,0)"
         rx="0.83722514"
         ry="0.8327446" /><ellipse
         style="font-variation-settings:normal;opacity:1;vector-effect:none;fill:#00c8b4;fill-opacity:1;stroke:#004455;stroke-width:0.214681;stroke-linecap:butt;stroke-linejoin:miter;stroke-miterlimit:4;stroke-dasharray:none;stroke-dashoffset:0;stroke-opacity:1;-inkscape-stroke:none;paint-order:fill markers stroke;stop-color:#000000;stop-opacity:1"
         id="ellipse143"
         cx="40.370468"
         cy="-8.1186447"
         rx="0.82765436"
         ry="0.84225768" /><ellipse
         style="font-variation-settings:normal;opacity:1;vector-effect:none;fill:#00c8b4;fill-opacity:1;stroke:#004455;stroke-width:0.214681;stroke-linecap:butt;stroke-linejoin:miter;stroke-miterlimit:4;stroke-dasharray:none;stroke-dashoffset:0;stroke-opacity:1;-inkscape-stroke:none;paint-order:fill markers stroke;stop-color:#000000;stop-opacity:1"
         id="ellipse144"
         cx="42.403698"
         cy="-7.82476"
         rx="0.82765436"
         ry="0.84225768" /><ellipse
         style="font-variation-settings:normal;opacity:1;vector-effect:none;fill:#00c8b4;fill-opacity:1;stroke:#004455;stroke-width:0.214681;stroke-linecap:butt;stroke-linejoin:miter;stroke-miterlimit:4;stroke-dasharray:none;stroke-dashoffset:0;stroke-opacity:1;-inkscape-stroke:none;paint-order:fill markers stroke;stop-color:#000000;stop-opacity:1"
         id="ellipse145"
         cx="41.040535"
         cy="-6.0247607"
         rx="0.82765436"
         ry="0.84225768" /></g></g></svg>
