<?xml version="1.0" encoding="UTF-8" standalone="no"?>
<svg
   version="1.1"
   x="0px"
   y="0px"
   viewBox="0 0 380.48099 121.416"
   enable-background="new 0 0 100 100"
   xml:space="preserve"
   id="svg14"
   sodipodi:docname="geniml_logo.svg"
   width="380.48099"
   height="121.416"
   inkscape:version="1.3 (1:1.3+202307231459+0e150ed6c4)"
   xmlns:inkscape="http://www.inkscape.org/namespaces/inkscape"
   xmlns:sodipodi="http://sodipodi.sourceforge.net/DTD/sodipodi-0.dtd"
   xmlns="http://www.w3.org/2000/svg"
   xmlns:svg="http://www.w3.org/2000/svg"><defs
     id="defs18" /><sodipodi:namedview
     id="namedview16"
     pagecolor="#505050"
     bordercolor="#eeeeee"
     borderopacity="1"
     inkscape:showpageshadow="0"
     inkscape:pageopacity="0"
     inkscape:pagecheckerboard="0"
     inkscape:deskcolor="#505050"
     showgrid="false"
     inkscape:zoom="2.1875"
     inkscape:cx="219.42857"
     inkscape:cy="62.857143"
     inkscape:window-width="2488"
     inkscape:window-height="1343"
     inkscape:window-x="1272"
     inkscape:window-y="27"
     inkscape:window-maximized="1"
     inkscape:current-layer="svg14" /><g
     id="g12"
     transform="translate(5.8368401,2.846641)"
     style="fill:#fff6d5;stroke:#ffeeaa"><g
       id="g6"
       style="fill:#fff6d5;stroke:#ffeeaa"><path
         fill="#000000"
         d="M 35.458,55.839 4.744,84.217 c -2.203,2.136 0.275,4.861 2.438,6.446 l 3.666,2.69 c 2.171,1.588 5.687,4.09 7.889,1.935 L 45.25,67.491 Z"
         id="path2"
         style="fill:#fff6d5;stroke:#ffeeaa" /><path
         fill="#000000"
         d="M 89.423,25.915 C 89.148,25.065 88.61,24.303 87.791,23.704 L 77.924,16.476 C 76.76,15.619 75.245,15.272 73.778,15.406 70.766,14.085 69.335,12.653 68.701,11.45 69.578,9.846 69.653,8.371 68.705,7.682 L 62.853,3.391 c -1.4,-1.034 -4.491,0.052 -6.898,2.411 l -4.932,4.79 c -2.418,2.359 -3.24,5.097 -1.836,6.119 l 5.855,4.283 c 0.912,0.672 2.545,0.437 4.239,-0.452 4.476,1.164 4.405,3.752 4.405,3.752 v 0 c -0.126,0.633 -0.106,1.273 0.055,1.871 -0.7,3.154 0.146,6.25 0.146,6.25 0,0 -1.302,1.262 -5.184,5.053 -1.923,1.864 -3.193,2.494 -3.999,2.643 -0.229,-0.008 -0.452,0.008 -0.681,0.028 -0.244,-0.044 -0.394,-0.13 -0.456,-0.186 l 0.232,0.201 c -1.439,0.169 -2.903,0.821 -4.016,1.907 l -0.602,0.559 1.888,2.273 7.605,8.376 2.635,-2.761 c 1.228,-1.195 1.771,-2.654 1.66,-3.983 0.338,-1.011 0.613,-1.907 0.613,-1.907 l 6.575,-6.246 c 3.178,0.319 6.041,-0.416 8.354,-1.438 0.728,0.039 1.471,-0.052 2.187,-0.244 12.443,4.577 10.98,19.148 10.98,19.148 2.769,-0.185 3.688,-3.591 3.688,-3.591 7.405,-12.402 -1.805,-22.628 -5.943,-26.332 z"
         id="path4"
         style="fill:#fff6d5;stroke:#ffeeaa" /></g><g
       id="g10"
       style="fill:#fff6d5;stroke:#ffeeaa"><path
         fill="#000000"
         d="m 12.971,10.325 c -1.75,0.056 0.197,1.742 0.197,1.742 l 7.811,5.25 c 2.674,1.447 1.77,3.241 1.77,3.241 -1.125,4.35 -7.457,6.143 -7.457,6.143 -1.762,0.943 -2.627,-0.177 -2.627,-0.177 L 5.338,21.218 c -3.504,-2.1 -3.166,2.053 -3.166,2.053 1.935,12.09 13.788,12.482 13.788,12.482 4.244,0.048 6.399,0.646 7.441,1.098 0.299,0.437 0.645,0.885 1.093,1.36 l 7.842,8.743 22.4,26.656 c 0.637,0.826 1.298,1.439 1.938,1.912 0.024,1.108 -0.185,2.784 -1.081,5.309 0,0 -3.127,9.675 9.941,14.866 0,0 4.594,1.521 3.272,-1.936 l -3.783,-7.495 c 0,0 -1.011,-1.038 0.586,-2.171 0,0 3.929,-4.57 9.175,-4.169 0,0 2.305,-0.188 3.135,2.407 l 3.575,7.873 c 0,0 1.325,2.068 1.915,0.684 0.369,-0.885 10.834,-15.849 -10.371,-20.461 0,0 -4.278,-0.618 -6.732,-3.808 L 44.85,42.994 35.23,31.389 C 32.359,28.451 32.953,24.829 32.953,24.829 34.113,6.354 14.08,10.286 12.971,10.325 Z"
         id="path8"
         style="fill:#fff6d5;stroke:#ffeeaa" /></g></g><g
     id="text468"
     transform="matrix(9.7768446,0,0,9.7768446,-1746.1654,-269.9439)"><path
       style="color:#000000;-inkscape-font-specification:'FuturaEF Book, ';fill:#fff6d5;-inkscape-stroke:none"
       d="m 194.61625,36.527855 v -4.33068 h -0.76801 v 0.618669 c -0.39466,-0.480002 -0.896,-0.725336 -1.52533,-0.725336 -1.31201,0 -2.14401,1.088003 -2.14401,2.336007 0,1.226671 0.82134,2.314674 2.11201,2.314674 0.61866,0 1.16267,-0.266667 1.55733,-0.736002 v 0.650669 c 0,0.949336 -0.352,1.749339 -1.41867,1.749339 -0.82133,0 -1.38667,-0.522669 -1.408,-1.344005 h -0.75734 c 0.0533,1.269338 0.89601,2.026673 2.15468,2.026673 0.68266,0 1.35467,-0.256 1.77067,-0.821336 0.39467,-0.533335 0.42667,-1.09867 0.42667,-1.738672 z m -0.72534,-2.122673 c 0,0.885336 -0.544,1.653338 -1.48267,1.653338 -0.90667,0 -1.45067,-0.757335 -1.45067,-1.610671 0,-0.864003 0.512,-1.674672 1.45067,-1.674672 0.928,0 1.48267,0.757335 1.48267,1.632005 z m 6.14402,0.16 v -0.149333 c 0,-1.280004 -0.75734,-2.325341 -2.11201,-2.325341 -1.344,0 -2.14401,1.06667 -2.14401,2.346674 0,1.301337 0.84267,2.314674 2.18668,2.314674 0.928,0 1.57867,-0.458668 2.02667,-1.258671 l -0.64,-0.352001 c -0.33067,0.544002 -0.68267,0.917336 -1.36534,0.917336 -0.87467,0 -1.36534,-0.682668 -1.408,-1.493338 z m -0.80001,-0.640002 h -2.60267 c 0.11733,-0.640002 0.65067,-1.141337 1.312,-1.141337 0.68267,0 1.16267,0.501335 1.29067,1.141337 z m 5.51468,2.698676 v -2.752009 c 0,-0.405335 -0.0213,-0.832003 -0.256,-1.173337 -0.26667,-0.405335 -0.77867,-0.608002 -1.25867,-0.608002 -0.57601,0 -0.92801,0.202667 -1.28001,0.640002 v -0.533335 h -0.75733 v 4.426681 h 0.75733 v -2.218674 c 0,-0.778669 0.11734,-1.632005 1.09867,-1.632005 0.832,0 0.928,0.544001 0.928,1.237337 v 2.613342 z m 2.37867,-6.101353 c 0,-0.298668 -0.24534,-0.544002 -0.544,-0.544002 -0.29867,0 -0.544,0.245334 -0.544,0.544002 0,0.298668 0.24533,0.544002 0.544,0.544002 0.29866,0 0.544,-0.245334 0.544,-0.544002 z m -0.17067,6.101353 v -4.426681 h -0.75733 v 4.426681 z m 7.26401,0 v -2.805343 c 0,-0.384001 -0.032,-0.800002 -0.24534,-1.13067 -0.256,-0.394668 -0.736,-0.597335 -1.19467,-0.597335 -0.55467,0 -1.01333,0.234667 -1.29067,0.714669 -0.256,-0.458668 -0.69333,-0.714669 -1.216,-0.714669 -0.49067,0 -0.81067,0.192001 -1.09867,0.576002 v -0.469335 h -0.75734 v 4.426681 h 0.75734 v -2.410675 c 0,-0.309334 0.0213,-0.682669 0.17067,-0.960003 0.14933,-0.288001 0.46933,-0.480001 0.8,-0.480001 0.69333,0 0.81067,0.672002 0.81067,1.22667 v 2.624009 h 0.75733 v -2.464008 c 0,-0.640002 0.14934,-1.386671 0.94934,-1.386671 0.704,0 0.8,0.597335 0.8,1.16267 v 2.688009 z m 2.20799,0 v -7.776025 h -0.75734 v 7.776025 z"
       id="path1" /><path
       style="color:#000000;-inkscape-font-specification:'FuturaEF Book, ';fill:#ffeeaa;-inkscape-stroke:none"
       d="m 215.51953,28.695312 v 8.082032 h 1.06445 v -0.154297 -7.927735 z m 0.30664,0.306641 h 0.44922 v 7.46875 h -0.44922 z m -9.24219,0.822266 c -0.38268,0 -0.69726,0.316535 -0.69726,0.699218 0,0.382684 0.31458,0.697266 0.69726,0.697266 0.38268,0 0.69727,-0.314578 0.69727,-0.697266 0,-0.382687 -0.31459,-0.699218 -0.69727,-0.699218 z m 0,0.308593 c 0.21464,0 0.39063,0.175977 0.39063,0.390625 0,0.214649 -0.17599,0.388672 -0.39063,0.388672 -0.21465,0 -0.39062,-0.17402 -0.39062,-0.388672 0,-0.214651 0.17597,-0.390625 0.39062,-0.390625 z M 192.32227,31.9375 c -1.39683,0 -2.29688,1.172091 -2.29688,2.488281 0,1.295155 0.88874,2.46875 2.26563,2.46875 0.55609,0 1.00729,-0.302613 1.40429,-0.664062 v 0.425781 c 0,0.455705 -0.0885,0.862279 -0.2832,1.142578 -0.19469,0.2803 -0.48744,0.453125 -0.98242,0.453125 -0.37812,0 -0.68313,-0.118597 -0.89844,-0.322266 -0.21531,-0.203668 -0.3457,-0.4967 -0.35547,-0.873046 l -0.004,-0.148438 h -1.06835 l 0.008,0.160156 c 0.028,0.667254 0.26709,1.215967 0.67383,1.59375 0.40674,0.377784 0.9727,0.580078 1.63281,0.580078 0.72101,0 1.44489,-0.27371 1.89453,-0.884765 0.42315,-0.57182 0.45703,-1.184963 0.45703,-1.830078 v -4.484375 h -1.07422 v 0.546875 C 193.30839,32.230763 192.881,31.9375 192.32227,31.9375 Z m 5.60156,0 c -0.71259,0 -1.29789,0.287573 -1.69336,0.746094 -0.39548,0.45852 -0.60547,1.081941 -0.60547,1.753906 0,0.683784 0.22163,1.300618 0.62891,1.748047 0.40727,0.447429 1.00037,0.720703 1.71093,0.720703 0.97856,0 1.69539,-0.504445 2.16211,-1.337891 l 0.0742,-0.134765 -0.9043,-0.498047 -0.0762,0.125 c -0.16087,0.264664 -0.32165,0.478249 -0.51172,0.621094 -0.19006,0.142844 -0.40928,0.222656 -0.72265,0.222656 -0.39742,0 -0.69007,-0.147625 -0.90039,-0.388672 -0.17472,-0.200235 -0.24757,-0.49571 -0.29297,-0.796875 h 3.39453 v -0.154297 -0.148437 c 0,-0.67026 -0.19744,-1.288106 -0.58398,-1.742188 -0.38655,-0.454082 -0.96289,-0.736328 -1.67969,-0.736328 z m 5.31054,0 c -0.49329,0 -0.80972,0.262303 -1.12695,0.5625 v -0.457031 h -1.0625 v 4.734375 h 1.0625 v -2.373047 c 0,-0.381628 0.0339,-0.769028 0.16602,-1.039063 0.13212,-0.270034 0.3331,-0.439453 0.77929,-0.439453 0.38257,0 0.543,0.106579 0.64454,0.283203 0.10153,0.176625 0.13086,0.461195 0.13085,0.800782 v 2.767578 h 1.07422 v -0.154297 -2.751953 c 0,-0.410104 -0.0183,-0.871213 -0.2832,-1.257813 -0.30356,-0.459965 -0.86218,-0.675781 -1.38477,-0.675781 z m 7.04102,0 c -0.41029,0 -0.67844,0.241432 -0.94531,0.492187 v -0.386718 h -1.06446 v 4.734375 h 1.06446 v -2.564453 c 0,-0.302291 0.0273,-0.654634 0.15234,-0.886719 v -0.002 c 0.12093,-0.233224 0.39278,-0.398438 0.66406,-0.398438 0.2971,0 0.42976,0.120656 0.52735,0.320313 0.0976,0.199657 0.13086,0.487391 0.13086,0.753906 v 2.777344 h 1.06445 v -2.617188 c 0,-0.308067 0.0385,-0.634669 0.15625,-0.863281 0.11774,-0.228612 0.2864,-0.371094 0.63867,-0.371094 0.30861,0 0.43611,0.107902 0.52735,0.28711 0.0912,0.179207 0.11914,0.448673 0.11914,0.722656 v 2.841797 h 1.06445 v -0.154297 -2.804688 c 0,-0.392524 -0.0282,-0.838838 -0.26953,-1.21289 v -0.002 c -0.2906,-0.448007 -0.82036,-0.666016 -1.32422,-0.666016 -0.54049,0 -0.97619,0.285465 -1.28711,0.714844 -0.28993,-0.415626 -0.70175,-0.714844 -1.21875,-0.714844 z m -4.22852,0.105469 v 4.734375 h 1.06446 v -0.154297 -4.580078 z m -13.7246,0.201172 c 0.58945,0 1.03773,0.219345 1.4082,0.669921 l 0.27148,0.330079 v -0.892579 h 0.46094 v 4.175782 c 0,0.634887 -0.0303,1.153588 -0.39648,1.648437 -0.38236,0.519616 -1.00414,0.757813 -1.64844,0.757813 -0.59856,0 -1.08122,-0.177877 -1.42383,-0.496094 -0.30295,-0.281388 -0.45048,-0.71878 -0.50977,-1.222656 h 0.44727 c 0.0453,0.367004 0.14909,0.710869 0.38867,0.9375 0.27803,0.262999 0.66617,0.40625 1.10938,0.40625 0.57169,0 0.98639,-0.226949 1.23437,-0.583985 0.24798,-0.357035 0.33789,-0.824729 0.33789,-1.318359 v -1.072266 l -0.27148,0.322266 c -0.36839,0.43809 -0.86488,0.681641 -1.43945,0.681641 -1.20445,0 -1.95899,-1.003925 -1.95899,-2.16211 0,-1.179815 0.76305,-2.18164 1.99024,-2.18164 z m 5.60156,0 c 0.63787,0 1.11452,0.240319 1.44531,0.628906 0.32991,0.387553 0.50881,0.931286 0.50977,1.539062 h -3.46094 l 0.008,0.16211 c 0.0228,0.433903 0.16535,0.839624 0.42969,1.142578 0.26434,0.302954 0.65361,0.496094 1.13086,0.496094 0.3693,0 0.66893,-0.107287 0.9082,-0.28711 0.20062,-0.150774 0.34586,-0.367226 0.49219,-0.591797 l 0.36523,0.201172 c -0.42064,0.670456 -0.96868,1.0625 -1.78711,1.0625 -0.63344,0 -1.13236,-0.234568 -1.48242,-0.61914 -0.35006,-0.384573 -0.55078,-0.923464 -0.55078,-1.541016 0,-0.608038 0.19072,-1.157919 0.53125,-1.552734 0.34053,-0.394815 0.82953,-0.640625 1.46094,-0.640625 z m 5.31054,0 c 0.43682,0 0.90085,0.189439 1.13086,0.539062 h 0.002 v 0.002 c 0.20333,0.29572 0.22851,0.685978 0.22851,1.085938 v 2.599609 h -0.46093 v -2.460937 c 0,-0.353749 -0.0174,-0.686369 -0.17188,-0.955079 -0.15447,-0.268709 -0.46072,-0.435546 -0.91016,-0.435546 -0.53513,0 -0.8828,0.260027 -1.05468,0.611328 -0.17188,0.3513 -0.19727,0.776787 -0.19727,1.173828 v 2.066406 h -0.44922 v -4.119141 h 0.44922 v 0.814454 l 0.27344,-0.339844 c 0.33519,-0.416451 0.62013,-0.582031 1.16015,-0.582031 z m 7.04102,0 c 0.47257,0 0.85043,0.221767 1.08203,0.636718 l 0.13086,0.234375 0.13477,-0.232422 c 0.25152,-0.435312 0.6468,-0.638671 1.1582,-0.638671 0.41348,0 0.845,0.186015 1.06641,0.527343 0.18535,0.287284 0.2207,0.671398 0.2207,1.046875 v 2.652344 h -0.45117 v -2.535156 c 0,-0.291352 -0.0196,-0.602488 -0.15235,-0.863281 -0.13276,-0.260794 -0.40539,-0.453125 -0.80078,-0.453125 -0.44773,0 -0.75322,0.232387 -0.91015,0.537109 -0.15694,0.304722 -0.19336,0.671972 -0.19336,1.003906 v 2.310547 h -0.44922 V 34 c 0,-0.288153 -0.0277,-0.613662 -0.16211,-0.888672 -0.13442,-0.27501 -0.4065,-0.492187 -0.80274,-0.492187 -0.39005,0 -0.75781,0.219722 -0.93554,0.5625 -0.17285,0.322251 -0.1875,0.715452 -0.1875,1.03125 v 2.257812 h -0.45117 v -4.119141 h 0.45117 v 0.775391 l 0.27539,-0.369141 c 0.27,-0.359998 0.52591,-0.513671 0.97656,-0.513671 z m -3.92187,0.107421 h 0.45117 v 4.119141 h -0.45117 z m -13.94532,0.267579 c -0.5135,0 -0.92647,0.229353 -1.19726,0.572265 -0.2708,0.342913 -0.40625,0.793553 -0.40625,1.25586 0,0.45927 0.14413,0.897198 0.41992,1.224609 0.27579,0.327411 0.68754,0.541016 1.18359,0.541016 0.51118,0 0.93083,-0.216119 1.21094,-0.550782 0.28011,-0.334662 0.42578,-0.783721 0.42578,-1.257812 0,-0.469766 -0.1481,-0.911951 -0.42969,-1.242188 -0.28158,-0.330236 -0.70129,-0.542968 -1.20703,-0.542968 z m 5.53516,0.01172 c -0.73887,0 -1.33325,0.560442 -1.46289,1.267578 l -0.0332,0.179688 h 2.9746 l -0.0371,-0.183594 c -0.13945,-0.697221 -0.68363,-1.263672 -1.44141,-1.263672 z m -5.53516,0.294922 c 0.42227,0 0.74491,0.168449 0.97266,0.435547 0.22775,0.267098 0.35742,0.638065 0.35742,1.042969 0,0.411243 -0.12696,0.789875 -0.35351,1.060547 -0.22656,0.270672 -0.54908,0.439453 -0.97657,0.439453 -0.41061,0 -0.72439,-0.165098 -0.94726,-0.429688 -0.22288,-0.264589 -0.34961,-0.633278 -0.34961,-1.027343 0,-0.401696 0.11997,-0.787984 0.33984,-1.066407 0.21987,-0.278422 0.53187,-0.455078 0.95703,-0.455078 z m 5.53516,0.01172 c 0.53072,0 0.87648,0.361527 1.04297,0.833984 h -2.10156 c 0.1691,-0.467726 0.54832,-0.833984 1.05859,-0.833984 z"
       id="path3" /></g></svg>
