<?xml version="1.0" encoding="UTF-8" standalone="no"?>
<!-- Created with Inkscape (http://www.inkscape.org/) -->

<svg
   width="48"
   height="56"
   viewBox="0 0 12.7 14.816665"
   version="1.1"
   id="svg1"
   xml:space="preserve"
   inkscape:version="1.3 (0e150ed, 2023-07-21)"
   sodipodi:docname="geniml_logo2.svg"
   xmlns:inkscape="http://www.inkscape.org/namespaces/inkscape"
   xmlns:sodipodi="http://sodipodi.sourceforge.net/DTD/sodipodi-0.dtd"
   xmlns="http://www.w3.org/2000/svg"
   xmlns:svg="http://www.w3.org/2000/svg"><sodipodi:namedview
     id="namedview1"
     pagecolor="#ffffff"
     bordercolor="#000000"
     borderopacity="0.25"
     inkscape:showpageshadow="2"
     inkscape:pageopacity="0.0"
     inkscape:pagecheckerboard="0"
     inkscape:deskcolor="#d1d1d1"
     inkscape:document-units="mm"
     inkscape:zoom="12.161159"
     inkscape:cx="50.200807"
     inkscape:cy="20.63948"
     inkscape:window-width="2560"
     inkscape:window-height="1387"
     inkscape:window-x="0"
     inkscape:window-y="819"
     inkscape:window-maximized="1"
     inkscape:current-layer="layer1" /><defs
     id="defs1" /><g
     inkscape:label="Layer 1"
     inkscape:groupmode="layer"
     id="layer1"><g
       id="g1"
       transform="matrix(0.02527504,0,0,0.02527504,1.0498941,0.83065452)"><path
         style="fill:none;stroke:#18181b;stroke-width:7.07816;stroke-dasharray:none;paint-order:fill markers stroke"
         d="M 133.59269,100.97745 297.3637,270.73875"
         id="path4" /><path
         fill="#00998e"
         d="m 389.21581,12.736724 -59.381,-15.1408159 a 1.1250529,1.0937489 87.312192 0 1 -0.69705,-0.5625826 l -0.15623,-0.3302121 -1.99499,-11.5329494 a 0.88897309,0.89315602 14.780021 0 1 0.87732,-1.051785 h 54.22527 q 0.7331,0 0.88934,0.733803 z"
         id="path104"
         style="stroke-width:1.21235" /><path
         fill="#f3a4ff"
         d="m 328.98153,-3.2968866 0.15623,0.3302121 a 1.1250529,1.0937489 87.312192 0 0 0.69705,0.5625826 l 59.381,15.1408159 c 5.45618,0.966175 10.43164,2.898526 15.81572,3.76686 q 7.17475,1.161856 13.78465,3.620098 a 1.9829723,2.0179603 0 0 1 1.29795,1.89566 l -0.16825,53.861189 q -0.012,2.054656 -2.01903,2.238106 -5.51627,0.476968 -10.72008,-1.883431 -0.72107,-0.330214 -2.10314,0.489203 -0.18027,-0.843878 -0.64898,-0.966172 -29.07157,-7.068976 -57.85472,-15.324269 -2.23534,-0.648193 -1.55032,0.990633 c -1.77866,-1.96904 -8.65297,-3.473336 -11.57334,-4.317214 q -4.38657,-1.895658 -6.36955,-2.360401 -16.44064,-3.950314 -32.54478,-6.677615 -4.37456,0.03669 -14.32547,-1.699981 -4.67501,-0.807182 -23.47119,-1.687747 -15.57534,-2.776222 -33.30191,1.112936 -20.53878,3.43665 -38.58984,16.217068 -3.97796,2.825143 -7.27091,3.6201 0.42064,-4.158225 2.4637,-8.4999 c 6.17726,-13.110622 13.64045,-23.469484 24.685,-34.06072 13.36403,-12.817105 28.61489,-22.50331374 46.67796,-27.0895875 q 28.2183,-7.1668165 56.74907,-2.4215517 c 4.81922,0.807184 12.8833,1.1496255 19.2168,3.7179385 q 0.80521,0.3302121 1.58638,-0.5748129 z"
         id="path105"
         style="stroke-width:1.21235" /><path
         fill="#3b78eb"
         d="m 256.76528,44.681643 5.336,6.249568 44.92335,46.877823 -15.95994,16.033616 -49.11762,-49.115928 -18.4837,-18.932143 q 17.72657,-3.889158 33.30191,-1.112936 z"
         id="path106"
         style="stroke-width:1.21235" /><path
         fill="#bb62c8"
         d="m 256.76528,44.681643 q 18.79618,0.880565 23.47119,1.687747 9.95091,1.736677 14.32547,1.699981 -0.9254,0.782723 -0.96144,0.929486 -0.10816,0.501429 0.31246,0.758261 -15.73157,-2.042422 -31.81168,1.174093 z"
         id="path107"
         style="stroke-width:1.21235" /><path
         fill="#bb62c8"
         d="m 223.46337,45.794579 18.4837,18.932143 q -8.19629,8.304205 -13.07559,20.008373 -6.89835,-6.971132 -12.95543,-13.147308 c -4.18226,-4.268293 -10.29944,-8.206372 -15.17875,-3.754629 -6.88632,6.261783 -0.10816,14.309165 4.21832,18.895439 q 10.16724,10.762457 20.11816,21.329223 c 0.18027,15.50772 2.88433,29.29101 5.72058,44.2606 q -0.30046,0.5259 -0.76916,0.0734 -7.23485,-7.08122 -24.4206,-24.74143 c -2.98047,-3.06974 -8.36454,-7.43587 -12.4747,-3.96253 -4.75913,4.02368 -0.7331,12.0833 2.24737,15.92354 q 9.42212,12.20561 20.02201,24.49681 l -40.71703,-13.72212 q -2.23535,-9.93081 -3.55733,-22.85798 c -2.1392,-20.85226 -0.9975,-42.487246 6.4777,-61.896344 q 3.29295,-0.794957 7.27091,-3.6201 18.05106,-12.780419 38.58984,-16.217069 z"
         id="path108"
         style="stroke-width:1.21235" /><path
         fill="#acdc48"
         d="m 294.56194,48.069371 q 16.10414,2.727301 32.54478,6.677615 1.98298,0.464743 6.36955,2.360401 l 6.28542,7.533718 -13.2078,14.027882 Q 312.1443,65.790737 297.72268,51.995225 c -1.10566,-1.064014 -2.4637,-1.540992 -3.80972,-2.238107 q -0.42062,-0.256832 -0.31246,-0.758261 0.0361,-0.146763 0.96144,-0.929486 z"
         id="path109"
         style="stroke-width:1.21235" /><path
         fill="#ffffff"
         d="m 293.91296,49.757118 c 1.34602,0.697115 2.70406,1.174093 3.80972,2.238107 q 14.42162,13.795512 28.83121,26.673762 1.74262,1.455376 3.20881,2.996368 c 6.5378,6.885521 14.07309,13.12286 20.95942,19.690395 q 2.30746,2.20141 3.10064,3.90139 c 2.25939,14.92068 2.55984,29.74351 3.42514,41.76566 q -1.38208,-0.0244 -2.63195,-1.30861 -22.89432,-23.49395 -46.00495,-46.755532 -0.67301,-0.684885 -1.58637,-1.149624 L 262.10128,50.931211 q 16.08011,-3.216515 31.81168,-1.174093 z"
         id="path110"
         style="stroke-width:1.21235" /><path
         fill="#ffffff"
         d="m 333.47627,57.107387 c 2.92037,0.843878 9.79468,2.348174 11.57334,4.317214 l 2.23535,7.741629 q -1.29794,0.758261 -2.40359,-0.440282 -2.35554,-2.580547 -5.11968,-4.084843 z"
         id="path111"
         style="stroke-width:1.21235" /><path
         fill="#00998e"
         d="m 405.10363,76.724409 q 3.16074,15.434338 4.02603,27.933461 -7.55932,16.77965 -14.91435,26.35579 -9.43414,12.26675 -24.20428,23.94645 -1.80271,1.43092 -4.05007,1.54099 l -8.71306,-9.4783 c -0.8653,-12.02215 -1.16575,-26.84498 -3.42514,-41.76566 q 2.03105,1.58991 3.88182,2.77623 c 5.75664,3.69348 14.50575,15.01851 21.94489,14.65161 6.97045,-0.34244 8.88132,-6.38409 5.61242,-11.87538 q -2.12719,-3.54672 -4.98748,-6.50641 -15.37104,-15.862379 -30.87428,-31.614702 c -1.02152,-1.027329 -1.5383,-2.262558 -2.11517,-3.522258 l -2.23535,-7.741629 q -0.68502,-1.638826 1.55032,-0.990633 28.78315,8.255293 57.85472,15.324269 0.46871,0.122294 0.64898,0.966172 z"
         id="path112"
         style="stroke-width:1.21235" /><path
         fill="#4bcfff"
         d="m 339.76169,64.641105 q 2.76414,1.504296 5.11968,4.084843 1.10565,1.198543 2.40359,0.440282 c 0.57687,1.2597 1.09365,2.494929 2.11517,3.522258 q 15.50324,15.752323 30.87428,31.614702 2.86029,2.95969 4.98748,6.50641 c 3.2689,5.49129 1.35803,11.53294 -5.61242,11.87538 -7.43914,0.3669 -16.18825,-10.95813 -21.94489,-14.65161 q -1.85077,-1.18632 -3.88182,-2.77623 -0.79318,-1.69998 -3.10064,-3.90139 C 343.83579,94.788215 336.3005,88.550876 329.7627,81.665355 q -1.46619,-1.540992 -3.20881,-2.996368 z"
         id="path113"
         style="stroke-width:1.21235" /><path
         fill="#ffffff"
         d="m 241.94707,64.726722 49.11762,49.115928 q 1.27391,2.01796 1.70656,2.45824 25.18976,25.45076 50.25934,50.99937 0.64897,0.67265 0.42063,2.15249 -12.51075,5.40568 -24.62492,6.87329 l -43.94987,-44.62751 a 0.42333407,0.43747041 29.512881 0 0 -0.61291,0 l -12.21031,12.29122 q -0.37256,0.39136 -0.91337,0.50144 l -0.42063,0.0856 q -0.24036,-0.6482 0.32449,-1.18632 5.84075,-5.6136 11.345,-11.55741 c 0.27642,-0.29352 0.56484,-0.34245 0.82925,-0.5259 a 0.79206328,0.77196004 71.942248 0 0 0.12017,-1.223 L 228.87148,84.735046 q 4.8793,-11.704169 13.07559,-20.008373 z"
         id="path114"
         style="stroke-width:1.21235" /><path
         fill="#acdc48"
         d="m 228.87148,84.735095 44.46664,45.349075 a 0.79206328,0.77196004 71.942248 0 1 -0.12017,1.223 c -0.26441,0.18346 -0.55283,0.23237 -0.82925,0.52591 q -5.50425,5.94379 -11.345,11.5574 -0.56485,0.53812 -0.32449,1.18631 l -0.54081,0.14677 c -6.05708,-2.93522 -11.66949,-11.38619 -16.50074,-16.27822 -3.53328,-3.58341 -6.94641,-7.90062 -10.011,-11.16605 q -4.25437,-4.52511 -8.59288,-9.22147 -9.95092,-10.566766 -20.11816,-21.329223 c -4.32648,-4.586274 -11.10464,-12.633656 -4.21832,-18.895439 4.87931,-4.451743 10.99649,-0.513664 15.17875,3.754629 q 6.05708,6.176176 12.95543,13.147308 z"
         id="path115"
         style="stroke-width:1.21235" /><path
         fill="#f3a4ff"
         d="m 307.02463,97.809034 q 0.91336,0.464739 1.58637,1.149624 23.11063,23.261582 46.00495,46.755532 1.24987,1.28416 2.63195,1.30861 l 8.71306,9.4783 q -0.27642,1.41869 -1.41813,2.12804 -10.20329,6.29848 -21.09161,10.82361 0.22834,-1.47984 -0.42063,-2.15249 -25.06958,-25.54861 -50.25934,-50.99937 -0.43265,-0.44028 -1.70656,-2.45824 z"
         id="path116"
         style="stroke-width:1.21235" /><path
         fill="#00c8b4"
         d="m 409.12966,104.65787 q 1.17777,3.16758 1.37006,5.77259 3.90584,52.46698 -30.92236,90.36792 -18.56782,20.20407 -40.56079,28.44713 -3.72558,1.39423 -14.09712,3.70571 c -19.09663,4.25607 -41.41408,4.40282 -60.65492,1.03956 q -6.36956,-1.12517 -12.69103,-2.1158 l -25.6224,-5.9805 -32.41259,-9.00133 q -0.79319,-0.91725 -1.97095,-1.29639 -20.02201,-7.99846 -41.32994,-11.78977 c -12.09014,-2.58055 -25.21381,-5.54022 -37.53228,-4.69635 q -3.61742,-0.84387 -11.68151,-0.46475 -12.546802,0.61151 -20.226314,1.92012 -2.295439,1.08849 -8.785166,2.00574 -7.511256,1.05178 -15.923871,6.89775 -0.252378,-0.2446 -1.550323,-0.28128 -0.757135,-0.0122 -1.490234,0.34243 -19.012498,9.28262 -30.513737,25.09609 -2.235351,3.05752 -4.506756,2.43378 0.01201,-3.95031 1.069604,-7.71717 c 6.886322,-24.21552 20.550804,-49.51952 40.019987,-65.49198 10.179258,-8.35313 22.089108,-15.96023 35.152694,-18.49185 7.306946,-1.4187 14.673986,-3.06974 21.944886,-3.35104 q 12.39058,-0.47698 21.6084,0.81941 14.49372,2.0302 36.85925,7.55818 l 40.71703,13.72213 22.37755,5.78482 q 4.8072,1.81006 10.02302,1.7856 3.04056,1.84673 6.88632,2.70283 16.4767,3.65679 34.46766,3.26543 14.03704,1.12517 29.67247,-1.32084 12.11417,-1.46761 24.62492,-6.87329 10.88832,-4.52513 21.09161,-10.82361 1.14171,-0.70935 1.41813,-2.12804 2.24736,-0.11007 4.05007,-1.54099 14.77014,-11.6797 24.20428,-23.94645 7.35503,-9.57614 14.91435,-26.35579 z"
         id="path117"
         style="stroke-width:1.21235" /><path
         fill="#ffffff"
         d="m 225.07378,108.05782 q 4.33851,4.69636 8.59288,9.22147 c 3.06459,3.26543 6.47772,7.58264 10.011,11.16605 4.83125,4.89203 10.44366,13.343 16.50074,16.27822 0.37256,1.14962 0.55283,2.1158 1.4061,3.03305 q 13.53229,14.46817 27.56933,29.89027 -17.99096,0.39136 -34.46766,-3.26543 -3.84576,-0.8561 -6.88632,-2.70283 -2.64396,-4.32946 -6.39359,-7.16682 c -3.10064,-3.44888 -8.90534,-8.04739 -10.6119,-12.19338 -2.83625,-14.96959 -5.54031,-28.75288 -5.72058,-44.2606 z"
         id="path118"
         style="stroke-width:1.21235" /><path
         fill="#4bcfff"
         d="m 230.79436,152.31842 c 1.70656,4.14599 7.51126,8.7445 10.6119,12.19338 -0.55283,2.80068 -4.02603,1.94457 -3.62943,5.38122 L 215.39928,164.1082 Q 204.79939,151.817 195.37727,139.61139 c -2.98047,-3.84024 -7.0065,-11.89986 -2.24737,-15.92354 4.11016,-3.47334 9.49423,0.89279 12.4747,3.96254 q 17.18575,17.66021 24.4206,24.74142 0.4687,0.45251 0.76916,-0.0734 z"
         id="path119"
         style="stroke-width:1.21235" /><path
         fill="#4bcfff"
         d="m 318.8263,176.32604 q -15.63543,2.44601 -29.67247,1.32084 -14.03704,-15.4221 -27.56933,-29.89027 c -0.85327,-0.91725 -1.03354,-1.88343 -1.4061,-3.03305 l 0.54081,-0.14677 0.42063,-0.0856 q 0.54081,-0.11008 0.91337,-0.50144 l 12.21031,-12.29117 a 0.42333407,0.43747041 29.512881 0 1 0.61291,0 z"
         id="path120"
         style="stroke-width:1.21235" /><path
         fill="#acdc48"
         d="m 241.40626,164.5118 q 3.74963,2.83736 6.39359,7.16682 -5.21582,0.0244 -10.02302,-1.7856 c -0.3966,-3.43665 3.0766,-2.58054 3.62943,-5.38122 z"
         id="path121"
         style="stroke-width:1.21235" /><path
         fill="#ffffff"
         d="m 112.70534,199.11064 50.35549,45.5203 37.88078,35.1125 q -1.04556,18.01489 -10.21532,32.59312 L 143.91613,264.76162 80.797516,200.56601 q 7.679512,-1.30861 20.226314,-1.92012 8.06409,-0.37912 11.68151,0.46475 z"
         id="path122"
         style="stroke-width:1.21235" /><path
         fill="#f3a4ff"
         d="m 150.23762,203.80699 27.13666,26.42916 -14.31345,14.39479 -50.35549,-45.5203 c 12.31847,-0.84387 25.44214,2.1158 37.53228,4.69635 z"
         id="path123"
         style="stroke-width:1.21235" /><path
         fill="#4bcfff"
         d="m 80.797516,200.56601 63.118614,64.19561 -16.76513,16.66957 q -23.29091,-23.54286 -46.341461,-47.06128 -0.10817,-0.11007 -3.304954,-3.75463 -2.031047,-2.31148 -4.554827,-3.96254 L 56.088479,209.4695 q 8.412615,-5.84597 15.923871,-6.89775 6.489727,-0.91725 8.785166,-2.00574 z"
         id="path124"
         style="stroke-width:1.21235" /><path
         fill="#ffffff"
         d="m 150.23762,203.80699 q 21.30793,3.79131 41.32994,11.78977 -0.19228,2.42156 0.3966,4.86757 3.86979,15.96024 7.28291,31.23558 l -21.87279,-21.46376 z"
         id="path125"
         style="stroke-width:1.21235" /><path
         fill="#00998e"
         d="m 56.088479,209.4695 16.861279,17.18324 q -3.232846,18.28394 -1.706558,37.64413 -3.509261,-2.75176 -6.501749,-5.77259 c -5.275909,-5.32007 -9.650467,-9.11139 -14.589869,-13.63652 -3.809711,-3.48557 -10.335493,-7.16681 -14.842249,-2.88629 -5.131692,4.8431 0.288433,12.92718 4.170252,16.8041 q 15.623418,15.56887 30.970418,31.46796 1.562347,1.61436 2.788184,3.17981 1.934899,4.09707 2.163242,5.58914 1.97095,13.42861 5.876809,26.33132 -2.908357,0.31799 -5.191782,-1.05178 -11.621421,-13.9912 -23.495218,-27.50541 c -3.929891,-4.48843 -11.477204,-8.47543 -15.923869,-3.02082 -5.071601,6.21287 0.12018,11.9243 3.581369,16.70626 q 1.790684,2.44601 3.160737,5.55244 -10.852266,-2.95967 -20.610893,-4.58627 -0.492739,-0.0734 -1.285928,-0.89279 c -5.456178,-23.39611 -7.739601,-49.54398 -3.485225,-73.51491 q 2.271405,0.62374 4.506756,-2.43378 11.501239,-15.81347 30.513737,-25.09609 0.733099,-0.35467 1.490234,-0.34243 1.297945,0.0367 1.550323,0.28128 z"
         id="path126"
         style="stroke-width:1.21235" /><path
         fill="#bb62c8"
         d="m 191.56756,215.59676 q 1.17776,0.37914 1.97095,1.29639 11.72959,11.77755 23.51925,23.54287 c 2.90837,2.89852 7.51126,5.14886 11.29693,2.87407 8.30446,-4.97764 -0.8773,-12.79265 -2.40359,-17.41561 l 25.6224,5.9805 c 3.62945,16.65734 5.50425,33.59598 3.05258,50.30225 q -2.3315,4.09706 -4.53079,8.25529 c -10.55182,19.92276 -27.56933,30.09818 -48.72103,36.01753 q 1.15373,-1.72445 -0.43265,-3.53449 -5.21581,-5.96827 -10.21532,-10.579 9.16976,-14.57823 10.21532,-32.59312 4.32649,3.58341 14.52978,13.36746 c 3.32899,3.19204 8.66499,3.52226 12.25838,0.55034 4.97545,-4.10929 2.16324,-11.23942 -1.61043,-15.6667 q -5.92487,-6.95891 -26.87227,-26.29463 -3.41312,-15.27534 -7.28291,-31.23558 -0.58888,-2.44601 -0.3966,-4.86757 z"
         id="path127"
         style="stroke-width:1.21235" /><path
         fill="#4bcfff"
         d="m 193.53851,216.89315 32.41259,9.00133 c 1.52629,4.62296 10.70805,12.43797 2.40359,17.41561 -3.78567,2.27479 -8.38856,0.0244 -11.29693,-2.87407 Q 205.2681,228.6707 193.53851,216.89315 Z"
         id="path128"
         style="stroke-width:1.21235" /><path
         fill="#ffffff"
         d="m 127.151,281.43119 46.68998,47.45264 q -4.15822,0.4892 -6.16523,2.67838 -11.62142,3.1309 -23.6875,2.1158 L 108.25868,299.83744 71.2432,264.29687 q -1.526288,-19.36019 1.706558,-37.64413 2.52378,1.65106 4.554827,3.96254 3.196784,3.64456 3.304954,3.75463 23.050551,23.51842 46.341461,47.06128 z"
         id="path129"
         style="stroke-width:1.21235" /><path
         fill="#3b78eb"
         d="m 177.37428,230.23615 21.87279,21.46376 q 20.9474,19.33572 26.87227,26.29463 c 3.77367,4.42728 6.58588,11.55741 1.61043,15.6667 -3.59339,2.97192 -8.92939,2.6417 -12.25838,-0.55034 q -10.20329,-9.78405 -14.52978,-13.36746 l -37.88078,-35.1125 z"
         id="path130"
         style="stroke-width:1.21235" /><path
         fill="#acdc48"
         d="m 71.2432,264.29687 37.01548,35.54057 -13.856771,14.32139 -21.163722,-20.70549 q -1.225837,-1.56545 -2.788184,-3.17981 -15.347,-15.89909 -30.970418,-31.46796 c -3.881819,-3.87692 -9.301944,-11.961 -4.170252,-16.8041 4.506756,-4.28052 11.032538,-0.59928 14.842249,2.88629 4.939402,4.52513 9.31396,8.31645 14.589869,13.63652 q 2.992488,3.02083 6.501749,5.77259 z"
         id="path131"
         style="stroke-width:1.21235" /><path
         fill="#acdc48"
         d="m 143.91613,264.76162 46.81016,47.57494 q 4.99951,4.61073 10.21532,10.579 1.58638,1.81004 0.43265,3.53449 -12.55882,4.78196 -24.85325,4.80642 -2.83626,-1.88344 -2.68003,-2.37264 L 127.151,281.43119 Z"
         id="path132"
         style="stroke-width:1.21235" /><path
         fill="#f3a4ff"
         d="m 254.62608,282.17723 c 2.17526,18.85875 -6.60991,43.61239 -16.09212,58.21508 -14.60189,22.51555 -39.80366,42.56062 -66.97639,48.70012 -15.68351,3.54672 -31.22281,3.38772 -47.05054,2.80068 -8.52077,-0.31799 -16.34449,-1.89567 -24.540777,-3.58341 q -1.129699,-0.23237 -2.764147,0.35468 -0.673014,-0.2813 -1.478215,-0.46475 -28.578842,-6.51863 -56.448613,-15.69117 -0.997495,-0.33021 -2.595891,-0.35467 -1.201801,-1.223 -2.271405,-1.46761 -12.258373,-2.76399 -24.7811441,-5.38122 -2.127189,-0.45252 -2.11517,-2.65393 l 0.156234,-52.61373 q 0.01201,-1.67552 1.610414,-1.28416 5.2278361,1.28416 10.7681401,2.31149 0.829243,0.15899 1.466198,-0.4892 0.793189,0.8194 1.285928,0.89279 9.758627,1.6266 20.610893,4.58627 12.005996,2.83738 24.913346,6.72654 c 2.547818,0.77049 5.107648,1.06401 7.763635,1.54099 q 2.283425,1.36977 5.191782,1.05178 1.670506,1.51653 3.4732,1.76112 12.234339,1.62661 24.336482,4.09709 0.56484,0.11006 1.00952,-0.26907 0.30045,-0.25683 0.66099,-0.37913 16.2123,3.3755 33.22982,3.0942 12.06608,1.0151 23.6875,-2.1158 l 8.84526,-0.30574 q 12.29443,-0.0244 24.85325,-4.80642 c 21.1517,-5.91935 38.16921,-16.09477 48.72103,-36.01753 q 2.19929,-4.15823 4.53079,-8.25529 z"
         id="path133"
         style="stroke-width:1.21235" /><path
         fill="#4bcfff"
         d="m 76.086456,324.32202 c -2.655987,-0.47698 -5.215817,-0.7705 -7.763635,-1.54099 q -12.90735,-3.88916 -24.913346,-6.72654 -1.370053,-3.10643 -3.160737,-5.55244 c -3.461189,-4.78196 -8.65297,-10.49339 -3.581369,-16.70626 4.446665,-5.45461 11.993978,-1.46761 15.923869,3.02082 q 11.873797,13.51421 23.495218,27.50541 z"
         id="path134"
         style="stroke-width:1.21235" /><path
         fill="#ffffff"
         d="m 73.238187,293.45334 21.163722,20.70549 q 0.03606,0.78273 0.841261,1.6266 c 4.170252,4.41505 9.30195,9.84521 15.51526,14.79838 q -0.36054,0.1223 -0.66099,0.37913 -0.44468,0.37913 -1.00952,0.26907 -12.102143,-2.47048 -24.336482,-4.09709 -1.802694,-0.24459 -3.4732,-1.76112 -3.905859,-12.90271 -5.876809,-26.33132 -0.228343,-1.49207 -2.163242,-5.58914 z"
         id="path135"
         style="stroke-width:1.21235" /><path
         fill="#4bcfff"
         d="m 108.25868,299.83744 35.72957,33.84057 q -17.01752,0.2813 -33.22982,-3.0942 c -6.21331,-4.95317 -11.345008,-10.38333 -15.51526,-14.79838 q -0.80521,-0.84387 -0.841261,-1.6266 z"
         id="path136"
         style="stroke-width:1.21235" /><path
         fill="#bb62c8"
         d="m 173.84098,328.88383 q -0.15623,0.4892 2.68003,2.37264 l -8.84526,0.30574 q 2.00701,-2.18918 6.16523,-2.67838 z"
         id="path137"
         style="stroke-width:1.21235" /><path
         fill="#00998e"
         d="m 36.679387,372.15379 q 1.598396,0.0244 2.595891,0.35467 27.869771,9.17254 56.448613,15.69117 0.805201,0.18345 1.478215,0.46475 l 2.199293,12.36459 a 0.66037795,0.63699853 87.417163 0 1 -0.624932,0.77049 l -53.708506,0.0122 a 1.8745686,1.8959038 3.6719556 0 1 -1.826739,-1.46761 z"
         id="path138"
         style="stroke-width:1.21235" /><ellipse
         style="fill:none;stroke:#18181b;stroke-width:7.07865;stroke-dasharray:none;paint-order:fill markers stroke"
         id="path3"
         cx="-45.723274"
         cy="68.367622"
         transform="matrix(0.5819884,-0.81319708,0.80339706,0.59544367,0,0)"
         rx="27.603819"
         ry="27.456097" /><ellipse
         style="fill:none;stroke:#18181b;stroke-width:7.07865;stroke-dasharray:none;paint-order:fill markers stroke"
         id="path3-1"
         cx="47.01833"
         cy="70.960258"
         transform="matrix(0.5819884,-0.81319708,0.80339706,0.59544367,0,0)"
         rx="27.603819"
         ry="27.456097" /><ellipse
         style="fill:none;stroke:#18181b;stroke-width:7.07865;stroke-dasharray:none;paint-order:fill markers stroke"
         id="path3-0"
         cx="-0.85556233"
         cy="142.73726"
         transform="matrix(0.5819884,-0.81319708,0.80339706,0.59544367,0,0)"
         rx="27.603819"
         ry="27.456097" /><ellipse
         style="fill:none;stroke:#18181b;stroke-width:7.07816;stroke-dasharray:none;paint-order:fill markers stroke"
         id="path3-6"
         cx="319.47513"
         cy="289.99875"
         rx="27.288265"
         ry="27.769745" /><ellipse
         style="fill:none;stroke:#18181b;stroke-width:7.07816;stroke-dasharray:none;paint-order:fill markers stroke"
         id="path3-1-3"
         cx="399.91928"
         cy="301.62622"
         rx="27.288265"
         ry="27.769745" /><ellipse
         style="fill:none;stroke:#18181b;stroke-width:7.07816;stroke-dasharray:none;paint-order:fill markers stroke"
         id="path3-0-6"
         cx="345.98611"
         cy="372.84271"
         rx="27.288265"
         ry="27.769745" /><path
         style="fill:none;stroke:#18181b;stroke-width:7.07816;stroke-dasharray:none;paint-order:fill markers stroke"
         d="m 93.982958,28.887042 8.378972,31.006626"
         id="path5" /><path
         style="fill:none;stroke:#18181b;stroke-width:7.07816;stroke-dasharray:none;paint-order:fill markers stroke"
         d="M 63.038413,24.326129 41.899398,52.827099"
         id="path6" /><path
         style="fill:none;stroke:#18181b;stroke-width:7.07816;stroke-dasharray:none;paint-order:fill markers stroke"
         d="m 52.849767,84.698969 32.754207,3.10067"
         id="path7" /><path
         style="fill:none;stroke:#18181b;stroke-width:7.07816;stroke-dasharray:none;paint-order:fill markers stroke"
         d="m 345.35242,290.89306 26.6604,3.87582"
         id="path8" /><path
         style="fill:none;stroke:#18181b;stroke-width:7.07816;stroke-dasharray:none;paint-order:fill markers stroke"
         d="m 327.83274,316.47352 7.61725,28.68114"
         id="path9" /><path
         style="fill:none;stroke:#18181b;stroke-width:7.07816;stroke-dasharray:none;paint-order:fill markers stroke"
         d="m 384.20044,325.00035 -20.32523,26.94301"
         id="path10"
         sodipodi:nodetypes="cc" /></g><text
       xml:space="preserve"
       style="font-size:2.82222px;line-height:1;font-family:Arial;-inkscape-font-specification:Arial;letter-spacing:-0.132292px;stroke-width:0.264583"
       x="2.3279369"
       y="13.314932"
       id="text10"><tspan
         sodipodi:role="line"
         id="tspan10"
         style="font-weight:bold;font-size:2.82222px;line-height:1;letter-spacing:-0.132292px;stroke-width:0.264583"
         x="2.3279369"
         y="13.314932"
         dx="0">geniml</tspan></text></g></svg>
