<?xml version="1.0" encoding="UTF-8" standalone="no"?>
<svg
   version="1.1"
   x="0px"
   y="0px"
   viewBox="0 0 354.48068 111.4156"
   enable-background="new 0 0 100 100"
   xml:space="preserve"
   id="svg14"
   sodipodi:docname="geniml_logo.svg"
   width="354.48068"
   height="111.4156"
   inkscape:version="1.2.2 (1:1.2.2+202212051550+b0a8486541)"
   xmlns:inkscape="http://www.inkscape.org/namespaces/inkscape"
   xmlns:sodipodi="http://sodipodi.sourceforge.net/DTD/sodipodi-0.dtd"
   xmlns="http://www.w3.org/2000/svg"
   xmlns:svg="http://www.w3.org/2000/svg"><defs
     id="defs18" /><sodipodi:namedview
     id="namedview16"
     pagecolor="#505050"
     bordercolor="#eeeeee"
     borderopacity="1"
     inkscape:showpageshadow="0"
     inkscape:pageopacity="0"
     inkscape:pagecheckerboard="0"
     inkscape:deskcolor="#505050"
     showgrid="false"
     inkscape:zoom="2.1875"
     inkscape:cx="163.42857"
     inkscape:cy="63.085714"
     inkscape:window-width="1920"
     inkscape:window-height="1043"
     inkscape:window-x="0"
     inkscape:window-y="0"
     inkscape:window-maximized="1"
     inkscape:current-layer="svg14" /><g
     id="g12"
     transform="translate(-2.1631599,-1.153359)"
     style="fill:#fff6d5;stroke:#ffeeaa"><g
       id="g6"
       style="fill:#fff6d5;stroke:#ffeeaa"><path
         fill="#000000"
         d="M 35.458,55.839 4.744,84.217 c -2.203,2.136 0.275,4.861 2.438,6.446 l 3.666,2.69 c 2.171,1.588 5.687,4.09 7.889,1.935 L 45.25,67.491 Z"
         id="path2"
         style="fill:#fff6d5;stroke:#ffeeaa" /><path
         fill="#000000"
         d="M 89.423,25.915 C 89.148,25.065 88.61,24.303 87.791,23.704 L 77.924,16.476 C 76.76,15.619 75.245,15.272 73.778,15.406 70.766,14.085 69.335,12.653 68.701,11.45 69.578,9.846 69.653,8.371 68.705,7.682 L 62.853,3.391 c -1.4,-1.034 -4.491,0.052 -6.898,2.411 l -4.932,4.79 c -2.418,2.359 -3.24,5.097 -1.836,6.119 l 5.855,4.283 c 0.912,0.672 2.545,0.437 4.239,-0.452 4.476,1.164 4.405,3.752 4.405,3.752 v 0 c -0.126,0.633 -0.106,1.273 0.055,1.871 -0.7,3.154 0.146,6.25 0.146,6.25 0,0 -1.302,1.262 -5.184,5.053 -1.923,1.864 -3.193,2.494 -3.999,2.643 -0.229,-0.008 -0.452,0.008 -0.681,0.028 -0.244,-0.044 -0.394,-0.13 -0.456,-0.186 l 0.232,0.201 c -1.439,0.169 -2.903,0.821 -4.016,1.907 l -0.602,0.559 1.888,2.273 7.605,8.376 2.635,-2.761 c 1.228,-1.195 1.771,-2.654 1.66,-3.983 0.338,-1.011 0.613,-1.907 0.613,-1.907 l 6.575,-6.246 c 3.178,0.319 6.041,-0.416 8.354,-1.438 0.728,0.039 1.471,-0.052 2.187,-0.244 12.443,4.577 10.98,19.148 10.98,19.148 2.769,-0.185 3.688,-3.591 3.688,-3.591 7.405,-12.402 -1.805,-22.628 -5.943,-26.332 z"
         id="path4"
         style="fill:#fff6d5;stroke:#ffeeaa" /></g><g
       id="g10"
       style="fill:#fff6d5;stroke:#ffeeaa"><path
         fill="#000000"
         d="m 12.971,10.325 c -1.75,0.056 0.197,1.742 0.197,1.742 l 7.811,5.25 c 2.674,1.447 1.77,3.241 1.77,3.241 -1.125,4.35 -7.457,6.143 -7.457,6.143 -1.762,0.943 -2.627,-0.177 -2.627,-0.177 L 5.338,21.218 c -3.504,-2.1 -3.166,2.053 -3.166,2.053 1.935,12.09 13.788,12.482 13.788,12.482 4.244,0.048 6.399,0.646 7.441,1.098 0.299,0.437 0.645,0.885 1.093,1.36 l 7.842,8.743 22.4,26.656 c 0.637,0.826 1.298,1.439 1.938,1.912 0.024,1.108 -0.185,2.784 -1.081,5.309 0,0 -3.127,9.675 9.941,14.866 0,0 4.594,1.521 3.272,-1.936 l -3.783,-7.495 c 0,0 -1.011,-1.038 0.586,-2.171 0,0 3.929,-4.57 9.175,-4.169 0,0 2.305,-0.188 3.135,2.407 l 3.575,7.873 c 0,0 1.325,2.068 1.915,0.684 0.369,-0.885 10.834,-15.849 -10.371,-20.461 0,0 -4.278,-0.618 -6.732,-3.808 L 44.85,42.994 35.23,31.389 C 32.359,28.451 32.953,24.829 32.953,24.829 34.113,6.354 14.08,10.286 12.971,10.325 Z"
         id="path8"
         style="fill:#fff6d5;stroke:#ffeeaa" /></g></g><text
     xml:space="preserve"
     style="font-size:10.6667px;line-height:1;font-family:Arial;-inkscape-font-specification:Arial;text-align:center;text-decoration:none;text-decoration-line:none;text-decoration-color:#000000;text-anchor:middle;white-space:pre;inline-size:64.6897;fill:#fff6d5;stroke:#ffeeaa;stroke-width:0.30684747;stop-color:#000000;stroke-dasharray:none"
     x="203.44771"
     y="36.623856"
     id="text468"
     transform="matrix(9.7768446,0,0,9.7768446,-1763.4828,-273.9439)"><tspan
       x="203.44771"
       y="36.623856"
       id="tspan1138"><tspan
         style="font-family:'DejaVu Sans Mono';-inkscape-font-specification:'DejaVu Sans Mono'"
         id="tspan1136">geniml</tspan></tspan></text></svg>
